<svg xmlns="http://www.w3.org/2000/svg" xmlns:xlink="http://www.w3.org/1999/xlink" width="500" zoomAndPan="magnify" viewBox="0 0 375 374.999991" height="500" preserveAspectRatio="xMidYMid meet" version="1.2"><defs><clipPath id="d469c3f148"><path d="M 0.320312 19 L 53 19 L 53 92 L 0.320312 92 Z M 0.320312 19 "/></clipPath><clipPath id="19d374e7c1"><rect x="0" width="277" y="0" height="116"/></clipPath></defs><g id="c884cc3322"><rect x="0" width="375" y="0" height="374.999991" style="fill:#ffffff;fill-opacity:1;stroke:none;"/><rect x="0" width="375" y="0" height="374.999991" style="fill:#3c3e47;fill-opacity:1;stroke:none;"/><g transform="matrix(1,0,0,1,52,129)"><g clip-path="url(#19d374e7c1)"><g style="fill:#5ce1e6;fill-opacity:0.4;"><g transform="translate(5.341744, 95.392118)"><path style="stroke:none" d="M 44.921875 -44.828125 L 44.921875 -43.375 L 49.078125 -43.375 L 49.078125 -42.40625 L 44.734375 -42.40625 L 44.734375 -41.453125 L 46.5625 -41.453125 L 46.5625 -39.515625 L 46.859375 -39.515625 L 46.859375 -37.578125 L 48.6875 -37.578125 L 48.6875 -36.609375 L 46.078125 -36.609375 L 46.078125 -35.9375 C 46.078125 -35.613281 46.046875 -35.359375 45.984375 -35.171875 L 45.5 -35.171875 C 45.238281 -34.460938 44.851562 -33.976562 44.34375 -33.71875 L 45.21875 -33.71875 C 44.894531 -33.457031 44.441406 -33.328125 43.859375 -33.328125 L 32.84375 -33.328125 L 32.84375 -32.265625 L 32.453125 -32.265625 L 32.453125 -30.328125 L 31.78125 -30.328125 L 31.78125 -29.375 L 33.046875 -29.375 L 33.046875 -28.40625 L 32.84375 -28.40625 L 32.84375 -27.4375 L 31.109375 -27.4375 L 31.109375 -25.5 L 37.484375 -25.5 L 37.484375 -23.578125 L 44.734375 -23.578125 L 44.734375 -21.640625 L 37.09375 -21.640625 L 37.09375 -20.671875 L 46.953125 -20.671875 L 46.953125 -19.21875 L 33.8125 -19.21875 L 33.8125 -18.75 L 30.8125 -18.75 L 30.8125 -16.8125 L 35.546875 -16.8125 L 35.546875 -15.84375 L 37.390625 -15.84375 L 37.390625 -15.359375 L 38.359375 -15.359375 L 38.359375 -13.421875 L 34.390625 -13.421875 L 34.390625 -11.984375 L 38.640625 -11.984375 L 38.640625 -10.046875 L 38.84375 -10.046875 L 38.84375 -8.109375 L 34.78125 -8.109375 L 34.78125 -6.671875 L 34.390625 -6.671875 L 34.390625 -6.1875 L 32.84375 -6.1875 L 32.84375 -4.25 L 29.46875 -4.25 L 29.46875 -2.3125 L 31.875 -2.3125 C 31.75 -1.414062 31.363281 -0.773438 30.71875 -0.390625 L 31.59375 -0.390625 C 31.269531 -0.128906 30.816406 0 30.234375 0 L 13.328125 0 C 12.753906 0 12.304688 -0.128906 11.984375 -0.390625 L 11.015625 -0.390625 C 10.367188 -0.773438 9.984375 -1.414062 9.859375 -2.3125 L 7.34375 -2.3125 L 7.34375 -4.25 L 10.71875 -4.25 L 10.71875 -6.1875 L 12.265625 -6.1875 L 12.265625 -6.671875 L 12.65625 -6.671875 L 12.65625 -8.109375 L 16.71875 -8.109375 L 16.71875 -10.046875 L 16.515625 -10.046875 L 16.515625 -11.984375 L 12.265625 -11.984375 L 12.265625 -13.421875 L 16.234375 -13.421875 L 16.234375 -15.359375 L 15.265625 -15.359375 L 15.265625 -15.84375 L 13.421875 -15.84375 L 13.421875 -16.8125 L 8.6875 -16.8125 L 8.6875 -18.75 L 11.6875 -18.75 L 11.6875 -19.21875 L 24.828125 -19.21875 L 24.828125 -20.671875 L 14.96875 -20.671875 L 14.96875 -21.640625 L 22.609375 -21.640625 L 22.609375 -23.578125 L 15.359375 -23.578125 L 15.359375 -25.5 L 8.984375 -25.5 L 8.984375 -27.4375 L 10.71875 -27.4375 L 10.71875 -28.40625 L 10.921875 -28.40625 L 10.921875 -29.375 L 9.65625 -29.375 L 9.65625 -30.328125 L 10.34375 -30.328125 L 10.34375 -32.265625 L 10.71875 -32.265625 L 10.71875 -33.328125 L 4.0625 -33.328125 C 3.476562 -33.328125 3.023438 -33.457031 2.703125 -33.71875 L 1.828125 -33.71875 C 1.316406 -33.976562 0.929688 -34.460938 0.671875 -35.171875 L 1.25 -35.171875 C 1.1875 -35.296875 1.140625 -35.421875 1.109375 -35.546875 C 1.078125 -35.679688 1.0625 -35.8125 1.0625 -35.9375 L 1.0625 -36.609375 L 3.671875 -36.609375 L 3.671875 -37.578125 L 1.828125 -37.578125 L 1.828125 -39.515625 L 1.546875 -39.515625 L 1.546875 -41.453125 L -0.296875 -41.453125 L -0.296875 -42.40625 L 4.0625 -42.40625 L 4.0625 -43.375 L -0.09375 -43.375 L -0.09375 -44.828125 L 1.546875 -44.828125 L 1.546875 -45.796875 L 1.453125 -45.796875 L 1.453125 -47.234375 L 2.21875 -47.234375 L 2.21875 -47.625 C 2.21875 -48.070312 2.316406 -48.425781 2.515625 -48.6875 L 7.25 -48.6875 C 7.695312 -49.71875 8.46875 -50.234375 9.5625 -50.234375 L 16.234375 -50.234375 L 16.234375 -50.625 L 17.78125 -50.625 L 17.78125 -52.5625 L 7.25 -52.5625 L 7.25 -53.515625 L 11.984375 -53.515625 C 12.046875 -53.648438 12.078125 -53.8125 12.078125 -54 L 11.203125 -54 C 11.203125 -54.257812 11.21875 -54.5 11.25 -54.71875 C 11.28125 -54.945312 11.332031 -55.191406 11.40625 -55.453125 L 10.625 -55.453125 C 10.6875 -55.773438 10.75 -56.113281 10.8125 -56.46875 C 10.882812 -56.820312 10.953125 -57.128906 11.015625 -57.390625 L 10.8125 -57.390625 C 10.8125 -57.515625 10.828125 -57.609375 10.859375 -57.671875 C 10.898438 -57.734375 10.921875 -57.800781 10.921875 -57.875 L 11.59375 -57.875 C 11.59375 -58 11.609375 -58.09375 11.640625 -58.15625 C 11.671875 -58.21875 11.6875 -58.285156 11.6875 -58.359375 L 11.5 -58.359375 C 11.5625 -58.609375 11.625 -58.847656 11.6875 -59.078125 C 11.75 -59.304688 11.816406 -59.546875 11.890625 -59.796875 L 11.984375 -59.796875 C 12.109375 -60.117188 12.234375 -60.457031 12.359375 -60.8125 C 12.492188 -61.164062 12.65625 -61.472656 12.84375 -61.734375 L 13.234375 -61.734375 C 13.359375 -62.054688 13.519531 -62.378906 13.71875 -62.703125 L 11.78125 -62.703125 C 12.164062 -63.347656 12.617188 -63.988281 13.140625 -64.625 L 11.890625 -64.625 L 13.328125 -66.078125 L 15.265625 -66.078125 C 15.585938 -66.335938 15.890625 -66.578125 16.171875 -66.796875 C 16.460938 -67.023438 16.769531 -67.269531 17.09375 -67.53125 L 16.515625 -67.53125 C 17.421875 -68.175781 18.320312 -68.660156 19.21875 -68.984375 L 19.125 -68.984375 C 19.320312 -69.109375 19.515625 -69.203125 19.703125 -69.265625 C 19.898438 -69.328125 20.09375 -69.394531 20.28125 -69.46875 L 18.75 -69.46875 C 20.800781 -70.238281 23.019531 -70.765625 25.40625 -71.046875 C 27.789062 -71.335938 30.269531 -71.484375 32.84375 -71.484375 L 41.828125 -71.484375 C 43.242188 -71.484375 44.113281 -70.8125 44.4375 -69.46875 L 45.890625 -69.46875 C 45.953125 -69.332031 45.984375 -69.171875 45.984375 -68.984375 L 46.078125 -68.984375 L 46.078125 -67.53125 L 46.65625 -67.53125 L 46.65625 -66.078125 L 44.734375 -66.078125 L 44.734375 -64.625 L 45.984375 -64.625 L 45.984375 -62.703125 L 47.921875 -62.703125 L 47.921875 -61.734375 L 47.53125 -61.734375 L 47.53125 -59.796875 L 47.4375 -59.796875 L 47.4375 -58.359375 L 47.625 -58.359375 L 47.625 -57.875 L 47.046875 -57.875 L 47.046875 -57.390625 L 47.140625 -57.390625 L 47.140625 -57.1875 C 47.140625 -56.476562 46.914062 -55.898438 46.46875 -55.453125 L 47.234375 -55.453125 C 46.785156 -54.867188 46.113281 -54.578125 45.21875 -54.578125 L 37.390625 -54.578125 C 36.160156 -54.578125 35.257812 -54.382812 34.6875 -54 L 35.453125 -54 C 35.328125 -53.9375 35.132812 -53.773438 34.875 -53.515625 L 30.140625 -53.515625 C 29.816406 -53.191406 29.625 -52.875 29.5625 -52.5625 L 40.09375 -52.5625 C 40.03125 -52.363281 39.984375 -52.164062 39.953125 -51.96875 C 39.921875 -51.78125 39.90625 -51.585938 39.90625 -51.390625 L 39.90625 -50.625 L 38.359375 -50.625 L 38.359375 -50.234375 L 49.375 -50.234375 C 50.53125 -50.234375 51.332031 -49.71875 51.78125 -48.6875 L 47.046875 -48.6875 C 47.171875 -48.300781 47.234375 -47.945312 47.234375 -47.625 L 47.234375 -47.234375 L 46.46875 -47.234375 L 46.46875 -45.796875 L 46.5625 -45.796875 L 46.5625 -44.828125 Z M 44.921875 -44.828125 "/></g></g><g style="fill:#5ce1e6;fill-opacity:0.4;"><g transform="translate(43.789818, 95.392118)"><path style="stroke:none" d="M 71.203125 -43.859375 L 71.203125 -42.890625 L 60.671875 -42.890625 C 60.671875 -42.828125 60.6875 -42.765625 60.71875 -42.703125 C 60.75 -42.640625 60.765625 -42.539062 60.765625 -42.40625 L 67.53125 -42.40625 L 67.53125 -41.921875 L 65.015625 -41.921875 C 65.078125 -41.671875 65.109375 -41.367188 65.109375 -41.015625 C 65.109375 -40.660156 65.109375 -40.320312 65.109375 -40 L 64.828125 -40 L 64.828125 -38.546875 L 60.484375 -38.546875 L 60.484375 -37.09375 L 64.4375 -37.09375 L 64.4375 -35.65625 L 65.5 -35.65625 L 65.5 -34.203125 L 65.21875 -34.203125 L 65.21875 -32.75 L 61.828125 -32.75 L 61.828125 -30.8125 L 66.953125 -30.8125 L 66.953125 -28.890625 L 62.015625 -28.890625 L 61.921875 -27.921875 L 63.953125 -27.921875 C 63.953125 -27.660156 63.953125 -27.414062 63.953125 -27.1875 C 63.953125 -26.96875 63.921875 -26.726562 63.859375 -26.46875 L 65.109375 -26.46875 C 65.046875 -26.34375 65.015625 -26.179688 65.015625 -25.984375 C 65.015625 -25.796875 65.015625 -25.632812 65.015625 -25.5 L 66.953125 -25.5 L 66.953125 -24.0625 L 69.46875 -24.0625 L 69.46875 -23.765625 C 69.394531 -23.503906 69.359375 -23.242188 69.359375 -22.984375 C 69.359375 -22.734375 69.328125 -22.445312 69.265625 -22.125 L 68.984375 -22.125 L 68.875 -21.15625 L 63.375 -21.15625 C 63.3125 -20.832031 63.265625 -20.507812 63.234375 -20.1875 C 63.203125 -19.863281 63.117188 -19.539062 62.984375 -19.21875 L 66.46875 -19.21875 L 66.171875 -17.78125 L 63.859375 -17.78125 L 63.28125 -15.84375 L 61.734375 -15.84375 L 61.15625 -14.390625 L 59.21875 -14.390625 C 59.09375 -14.066406 58.945312 -13.742188 58.78125 -13.421875 C 58.625 -13.109375 58.445312 -12.789062 58.25 -12.46875 L 55.640625 -12.46875 C 55.453125 -12.144531 55.257812 -11.820312 55.0625 -11.5 C 54.875 -11.175781 54.679688 -10.851562 54.484375 -10.53125 L 59.421875 -10.53125 C 59.160156 -10.207031 58.914062 -9.882812 58.6875 -9.5625 C 58.46875 -9.238281 58.226562 -8.914062 57.96875 -8.59375 L 58.9375 -8.59375 L 58.453125 -8.109375 L 60.375 -8.109375 L 59.515625 -7.15625 L 56.125 -7.15625 L 55.15625 -6.1875 L 53.625 -6.1875 C 52.78125 -5.476562 51.941406 -4.832031 51.109375 -4.25 L 44.640625 -4.25 L 42.21875 -2.796875 L 50.625 -2.796875 C 49.53125 -2.222656 48.4375 -1.742188 47.34375 -1.359375 L 50.234375 -1.359375 C 49.398438 -1.097656 48.5625 -0.835938 47.71875 -0.578125 C 46.882812 -0.316406 46.015625 -0.09375 45.109375 0.09375 L 45.3125 0.09375 C 44.863281 0.15625 44.394531 0.234375 43.90625 0.328125 C 43.425781 0.429688 42.925781 0.515625 42.40625 0.578125 L 52.265625 0.578125 C 51.359375 0.703125 50.40625 0.796875 49.40625 0.859375 C 48.414062 0.929688 47.375 0.96875 46.28125 0.96875 C 45.25 0.96875 44.234375 0.929688 43.234375 0.859375 C 42.234375 0.796875 41.28125 0.703125 40.375 0.578125 L 30.4375 0.578125 C 29.976562 0.515625 29.507812 0.429688 29.03125 0.328125 C 28.550781 0.234375 28.050781 0.15625 27.53125 0.09375 L 27.4375 0.09375 C 25.5 -0.289062 23.789062 -0.773438 22.3125 -1.359375 L 19.421875 -1.359375 C 18.253906 -1.742188 17.191406 -2.222656 16.234375 -2.796875 L 7.828125 -2.796875 C 7.378906 -3.054688 6.941406 -3.296875 6.515625 -3.515625 C 6.097656 -3.742188 5.695312 -3.988281 5.3125 -4.25 L 11.78125 -4.25 C 10.945312 -4.832031 10.113281 -5.476562 9.28125 -6.1875 L 10.8125 -6.1875 L 9.859375 -7.15625 L 13.140625 -7.15625 L 12.265625 -8.109375 L 10.34375 -8.109375 C 10.144531 -8.304688 10.015625 -8.46875 9.953125 -8.59375 L 8.984375 -8.59375 C 8.472656 -9.113281 7.988281 -9.757812 7.53125 -10.53125 L 2.515625 -10.53125 C 2.316406 -10.851562 2.117188 -11.175781 1.921875 -11.5 C 1.734375 -11.820312 1.546875 -12.144531 1.359375 -12.46875 L 3.96875 -12.46875 C 3.832031 -12.789062 3.664062 -13.109375 3.46875 -13.421875 C 3.28125 -13.742188 3.125 -14.066406 3 -14.390625 L 5.03125 -14.390625 C 4.769531 -14.910156 4.570312 -15.394531 4.4375 -15.84375 L 5.890625 -15.84375 L 5.3125 -17.78125 L 7.53125 -17.78125 C 7.46875 -18.03125 7.40625 -18.269531 7.34375 -18.5 C 7.28125 -18.726562 7.21875 -18.96875 7.15625 -19.21875 L 8.109375 -19.21875 C 8.046875 -19.539062 8 -19.863281 7.96875 -20.1875 C 7.9375 -20.507812 7.859375 -20.832031 7.734375 -21.15625 L 3.96875 -21.15625 L 3.859375 -22.125 L 2.515625 -22.125 L 2.3125 -23.765625 L 2.3125 -24.0625 L 8.109375 -24.0625 C 8.046875 -24.3125 8.015625 -24.550781 8.015625 -24.78125 C 8.015625 -25.007812 8.015625 -25.25 8.015625 -25.5 L 3.96875 -25.5 L 3.859375 -26.46875 L 4.25 -26.46875 C 4.1875 -26.726562 4.15625 -26.96875 4.15625 -27.1875 C 4.15625 -27.414062 4.15625 -27.660156 4.15625 -27.921875 L 3.09375 -27.921875 L 3 -28.890625 L 2.890625 -28.890625 C 2.890625 -29.210938 2.875 -29.53125 2.84375 -29.84375 C 2.8125 -30.164062 2.796875 -30.488281 2.796875 -30.8125 L 2.421875 -30.8125 C 2.421875 -31.132812 2.398438 -31.457031 2.359375 -31.78125 C 2.328125 -32.101562 2.3125 -32.425781 2.3125 -32.75 L 2.890625 -32.75 L 2.890625 -34.203125 L 4.546875 -34.203125 L 4.546875 -35.65625 L 3.484375 -35.65625 L 3.484375 -37.09375 L 3.1875 -37.09375 L 3.1875 -38.546875 L -0.765625 -38.546875 C -0.703125 -38.804688 -0.671875 -39.046875 -0.671875 -39.265625 C -0.671875 -39.492188 -0.671875 -39.738281 -0.671875 -40 L 5.03125 -40 L 5.03125 -41.921875 L 5.796875 -41.921875 C 5.859375 -42.054688 5.890625 -42.21875 5.890625 -42.40625 L 13.140625 -42.40625 L 13.140625 -42.890625 L 7.25 -42.890625 L 7.34375 -43.859375 L 5.125 -43.859375 L 5.21875 -44.25 C 5.21875 -44.695312 5.25 -45.050781 5.3125 -45.3125 L 4.15625 -45.3125 C 4.21875 -45.570312 4.25 -45.8125 4.25 -46.03125 C 4.25 -46.257812 4.28125 -46.503906 4.34375 -46.765625 L 4.640625 -46.765625 C 4.703125 -46.890625 4.734375 -47.046875 4.734375 -47.234375 C 4.734375 -47.429688 4.765625 -47.59375 4.828125 -47.71875 L 6.09375 -47.71875 C 6.15625 -47.976562 6.21875 -48.21875 6.28125 -48.4375 C 6.34375 -48.664062 6.40625 -48.910156 6.46875 -49.171875 L 0.578125 -49.171875 C 0.703125 -49.429688 0.796875 -49.671875 0.859375 -49.890625 C 0.929688 -50.117188 1 -50.363281 1.0625 -50.625 L 2.515625 -50.625 L 3.09375 -52.078125 L -7.4375 -52.078125 L -6.5625 -54 L -1.359375 -54 L -1.15625 -54.484375 L 3.375 -54.484375 C 3.632812 -55.128906 3.988281 -55.773438 4.4375 -56.421875 L 1.828125 -56.421875 L 2.125 -56.90625 L 5.703125 -56.90625 C 5.960938 -57.226562 6.203125 -57.566406 6.421875 -57.921875 C 6.648438 -58.273438 6.894531 -58.578125 7.15625 -58.828125 L 10.046875 -58.828125 C 10.171875 -58.960938 10.3125 -59.125 10.46875 -59.3125 C 10.632812 -59.507812 10.785156 -59.671875 10.921875 -59.796875 L 11.203125 -59.796875 C 11.398438 -59.929688 11.578125 -60.09375 11.734375 -60.28125 C 11.898438 -60.476562 12.046875 -60.640625 12.171875 -60.765625 L 11.78125 -60.765625 L 13.53125 -62.21875 L 13.71875 -62.21875 L 15.75 -63.671875 L 15.84375 -63.671875 L 17.578125 -64.625 C 17.710938 -64.757812 17.859375 -64.859375 18.015625 -64.921875 C 18.179688 -64.984375 18.359375 -65.046875 18.546875 -65.109375 L 16.609375 -65.109375 C 16.742188 -65.242188 16.90625 -65.34375 17.09375 -65.40625 C 17.289062 -65.46875 17.453125 -65.53125 17.578125 -65.59375 L 18.546875 -65.59375 C 18.929688 -65.789062 19.332031 -65.96875 19.75 -66.125 C 20.175781 -66.289062 20.582031 -66.4375 20.96875 -66.5625 L 21.734375 -66.5625 C 21.992188 -66.6875 22.234375 -66.78125 22.453125 -66.84375 C 22.679688 -66.914062 22.925781 -66.984375 23.1875 -67.046875 L 23 -67.046875 C 23.3125 -67.171875 23.613281 -67.265625 23.90625 -67.328125 C 24.195312 -67.398438 24.503906 -67.46875 24.828125 -67.53125 L 25.015625 -67.53125 C 26.503906 -67.851562 28.035156 -68.109375 29.609375 -68.296875 C 31.191406 -68.492188 32.851562 -68.59375 34.59375 -68.59375 C 37.875 -68.59375 41.023438 -68.238281 44.046875 -67.53125 L 43.859375 -67.53125 C 44.179688 -67.46875 44.503906 -67.398438 44.828125 -67.328125 C 45.148438 -67.265625 45.441406 -67.171875 45.703125 -67.046875 L 45.984375 -67.046875 C 46.242188 -66.984375 46.484375 -66.914062 46.703125 -66.84375 C 46.929688 -66.78125 47.175781 -66.6875 47.4375 -66.5625 L 46.765625 -66.5625 C 47.210938 -66.4375 47.644531 -66.289062 48.0625 -66.125 C 48.476562 -65.96875 48.878906 -65.789062 49.265625 -65.59375 L 48.296875 -65.59375 L 49.375 -65.109375 L 51.296875 -65.109375 C 51.429688 -65.046875 51.578125 -64.984375 51.734375 -64.921875 C 51.890625 -64.859375 52.066406 -64.757812 52.265625 -64.625 L 52.171875 -64.625 L 53.90625 -63.671875 L 53.71875 -63.671875 C 54.101562 -63.410156 54.472656 -63.164062 54.828125 -62.9375 C 55.179688 -62.71875 55.519531 -62.476562 55.84375 -62.21875 L 55.640625 -62.21875 C 55.960938 -61.957031 56.253906 -61.710938 56.515625 -61.484375 C 56.773438 -61.265625 57.035156 -61.023438 57.296875 -60.765625 L 57.671875 -60.765625 C 57.867188 -60.640625 58.046875 -60.476562 58.203125 -60.28125 C 58.367188 -60.09375 58.515625 -59.929688 58.640625 -59.796875 L 58.359375 -59.796875 L 59.21875 -58.828125 L 56.421875 -58.828125 C 56.679688 -58.578125 56.921875 -58.273438 57.140625 -57.921875 C 57.367188 -57.566406 57.613281 -57.226562 57.875 -56.90625 L 54.296875 -56.90625 L 54.578125 -56.421875 L 57.296875 -56.421875 C 57.484375 -56.160156 57.671875 -55.851562 57.859375 -55.5 C 58.054688 -55.144531 58.253906 -54.804688 58.453125 -54.484375 L 53.90625 -54.484375 L 54.203125 -54 L 48.984375 -54 L 49.84375 -52.078125 L 60.28125 -52.078125 L 60.859375 -50.625 L 59.3125 -50.625 C 59.382812 -50.363281 59.453125 -50.117188 59.515625 -49.890625 C 59.578125 -49.671875 59.640625 -49.429688 59.703125 -49.171875 L 58.9375 -49.171875 L 59.21875 -47.71875 L 63.765625 -47.71875 C 63.890625 -47.332031 63.953125 -47.015625 63.953125 -46.765625 L 64.625 -46.765625 C 64.695312 -46.503906 64.75 -46.257812 64.78125 -46.03125 C 64.8125 -45.8125 64.828125 -45.570312 64.828125 -45.3125 L 65.5 -45.3125 C 65.5625 -45.050781 65.59375 -44.695312 65.59375 -44.25 C 65.59375 -44.050781 65.625 -43.921875 65.6875 -43.859375 Z M 30.140625 -49.953125 C 29.109375 -49.953125 28.175781 -49.691406 27.34375 -49.171875 L 32.9375 -49.171875 C 32.226562 -49.691406 31.296875 -49.953125 30.140625 -49.953125 Z M 46.078125 -42.890625 C 46.078125 -43.210938 46.046875 -43.472656 45.984375 -43.671875 L 45.984375 -43.859375 L 40.484375 -43.859375 C 40.484375 -44.117188 40.460938 -44.359375 40.421875 -44.578125 C 40.390625 -44.804688 40.34375 -45.050781 40.28125 -45.3125 L 39.609375 -45.3125 C 39.546875 -45.570312 39.5 -45.8125 39.46875 -46.03125 C 39.4375 -46.257812 39.351562 -46.503906 39.21875 -46.765625 L 38.546875 -46.765625 C 38.484375 -47.015625 38.320312 -47.332031 38.0625 -47.71875 L 33.53125 -47.71875 C 33.394531 -47.914062 33.257812 -48.109375 33.125 -48.296875 C 33 -48.492188 32.84375 -48.65625 32.65625 -48.78125 C 32.332031 -48.457031 32.070312 -48.101562 31.875 -47.71875 L 30.53125 -47.71875 C 30.46875 -47.59375 30.398438 -47.445312 30.328125 -47.28125 C 30.265625 -47.125 30.171875 -46.953125 30.046875 -46.765625 L 29.75 -46.765625 C 29.6875 -46.503906 29.625 -46.257812 29.5625 -46.03125 C 29.5 -45.8125 29.4375 -45.570312 29.375 -45.3125 L 30.53125 -45.3125 C 30.46875 -45.050781 30.414062 -44.804688 30.375 -44.578125 C 30.34375 -44.359375 30.328125 -44.117188 30.328125 -43.859375 L 32.453125 -43.859375 L 32.453125 -42.890625 Z M 42.40625 -41.921875 C 42.40625 -42.117188 42.375 -42.28125 42.3125 -42.40625 L 31.015625 -42.40625 L 31.015625 -41.921875 L 30.234375 -41.921875 C 30.234375 -41.671875 30.21875 -41.367188 30.1875 -41.015625 C 30.15625 -40.660156 30.140625 -40.320312 30.140625 -40 L 24.4375 -40 L 24.4375 -38.546875 L 28.40625 -38.546875 C 28.40625 -38.285156 28.390625 -38.039062 28.359375 -37.8125 C 28.328125 -37.59375 28.3125 -37.351562 28.3125 -37.09375 L 28.6875 -37.09375 L 28.6875 -35.65625 L 29.75 -35.65625 L 29.75 -34.203125 L 28.109375 -34.203125 L 28.109375 -32.75 L 27.53125 -32.75 L 27.53125 -30.8125 L 28.015625 -30.8125 L 28.015625 -28.890625 L 28.203125 -28.890625 L 28.203125 -27.921875 L 29.375 -27.921875 L 29.375 -26.46875 L 29.078125 -26.46875 L 29.078125 -25.5 L 33.140625 -25.5 C 33.203125 -25.3125 33.234375 -25.101562 33.234375 -24.875 C 33.234375 -24.644531 33.234375 -24.4375 33.234375 -24.25 L 33.234375 -24.0625 L 27.4375 -24.0625 L 27.734375 -22.125 L 29.078125 -22.125 L 29.375 -21.15625 L 33.140625 -21.15625 C 33.460938 -20.320312 33.878906 -19.675781 34.390625 -19.21875 L 33.421875 -19.21875 C 34.265625 -18.382812 35.394531 -17.96875 36.8125 -17.96875 C 38.289062 -17.96875 39.445312 -18.382812 40.28125 -19.21875 L 36.8125 -19.21875 C 37.257812 -19.675781 37.644531 -20.320312 37.96875 -21.15625 L 43.46875 -21.15625 L 43.765625 -22.125 L 44.046875 -22.125 L 44.34375 -24.0625 L 41.734375 -24.0625 L 41.734375 -24.25 C 41.796875 -24.4375 41.828125 -24.644531 41.828125 -24.875 C 41.828125 -25.101562 41.828125 -25.3125 41.828125 -25.5 L 39.90625 -25.5 L 39.90625 -26.46875 L 38.734375 -26.46875 L 38.734375 -27.921875 L 36.8125 -27.921875 L 36.8125 -28.890625 L 41.734375 -28.890625 L 41.734375 -30.8125 L 36.609375 -30.8125 L 36.609375 -32.75 L 40 -32.75 L 40 -34.203125 L 40.28125 -34.203125 L 40.28125 -35.65625 L 39.3125 -35.65625 L 39.3125 -37.09375 L 35.265625 -37.09375 L 35.265625 -38.546875 L 39.609375 -38.546875 L 39.609375 -40 L 39.90625 -40 L 39.90625 -41.921875 Z M 42.40625 -41.921875 "/></g></g><g style="fill:#5ce1e6;fill-opacity:0.4;"><g transform="translate(104.070546, 95.392118)"><path style="stroke:none" d="M 65.21875 -46.28125 L 55.15625 -46.28125 L 55.15625 -45.3125 L 56.03125 -45.3125 L 56.03125 -44.34375 L 52.359375 -44.34375 L 52.359375 -42.40625 L 47.4375 -42.40625 L 47.4375 -41.453125 L 49.953125 -41.453125 L 49.953125 -40.484375 L 50.140625 -40.484375 L 50.140625 -39.515625 L 48.015625 -39.515625 L 48.015625 -37.578125 L 47.921875 -37.578125 L 47.921875 -36.125 L 49.46875 -36.125 L 49.46875 -34.203125 L 45.703125 -34.203125 L 45.703125 -32.75 L 48.296875 -32.75 L 48.296875 -31.296875 L 49.75 -31.296875 L 49.75 -29.375 L 42.21875 -29.375 L 42.21875 -28.40625 L 38.640625 -28.40625 L 38.640625 -26.46875 L 51.109375 -26.46875 L 51.109375 -25.984375 L 42.40625 -25.984375 L 42.40625 -24.0625 L 52.265625 -24.0625 L 52.265625 -23.09375 L 40.96875 -23.09375 L 40.96875 -21.640625 L 48.78125 -21.640625 L 48.78125 -19.703125 L 48.6875 -19.703125 L 48.6875 -17.78125 L 49.5625 -17.78125 L 49.5625 -16.8125 L 51.015625 -16.8125 L 51.015625 -15.359375 L 52.359375 -15.359375 L 52.359375 -13.90625 L 51.203125 -13.90625 L 51.203125 -12.46875 L 48.5 -12.46875 L 48.5 -11.015625 L 48.40625 -11.015625 L 48.40625 -9.078125 L 48.296875 -9.078125 L 48.296875 -8.59375 L 47.53125 -8.59375 L 47.53125 -6.671875 L 47.921875 -6.671875 L 47.921875 -6.1875 L 48.6875 -6.1875 L 48.6875 -5.703125 L 49.953125 -5.703125 L 49.953125 -3.765625 L 51.390625 -3.765625 L 51.390625 -2.609375 C 51.390625 -2.285156 51.359375 -2.023438 51.296875 -1.828125 L 51.5 -1.828125 C 51.363281 -1.253906 51.007812 -0.773438 50.4375 -0.390625 L 47.828125 -0.390625 C 47.503906 -0.128906 47.050781 0 46.46875 0 L 27.53125 0 C 26.957031 0 26.507812 -0.128906 26.1875 -0.390625 L 28.6875 -0.390625 C 28.238281 -0.710938 27.882812 -1.191406 27.625 -1.828125 L 27.34375 -1.828125 C 27.34375 -1.960938 27.328125 -2.09375 27.296875 -2.21875 C 27.265625 -2.351562 27.25 -2.484375 27.25 -2.609375 L 27.25 -3.765625 L 25.796875 -3.765625 L 25.796875 -5.703125 L 24.53125 -5.703125 L 24.53125 -6.1875 L 23.765625 -6.1875 L 23.765625 -6.671875 L 23.375 -6.671875 L 23.375 -8.59375 L 24.15625 -8.59375 L 24.15625 -9.078125 L 24.25 -9.078125 L 24.25 -11.015625 L 24.34375 -11.015625 L 24.34375 -12.46875 L 27.046875 -12.46875 L 27.046875 -13.90625 L 28.203125 -13.90625 L 28.203125 -15.359375 L 26.859375 -15.359375 L 26.859375 -16.8125 L 25.40625 -16.8125 L 25.40625 -17.78125 L 24.53125 -17.78125 L 24.53125 -19.703125 L 24.640625 -19.703125 L 24.640625 -21.640625 L 16.8125 -21.640625 L 16.8125 -23.09375 L 28.109375 -23.09375 L 28.109375 -24.0625 L 18.265625 -24.0625 L 18.265625 -25.984375 L 26.953125 -25.984375 L 26.953125 -26.46875 L 14.484375 -26.46875 L 14.484375 -28.40625 L 18.0625 -28.40625 L 18.0625 -29.375 L 25.59375 -29.375 L 25.59375 -31.296875 L 24.15625 -31.296875 L 24.15625 -32.75 L 21.546875 -32.75 L 21.546875 -34.203125 L 25.3125 -34.203125 L 25.3125 -36.125 L 23.765625 -36.125 L 23.765625 -37.578125 L 23.859375 -37.578125 L 23.859375 -39.515625 L 25.984375 -39.515625 L 25.984375 -40.484375 L 25.796875 -40.484375 L 25.796875 -40.765625 L 25.40625 -40.484375 L 24.4375 -40.484375 L 23.1875 -39.515625 L 21.25 -39.515625 L 18.75 -37.578125 L 18.9375 -37.578125 L 17.09375 -36.125 L 16.234375 -36.125 L 13.71875 -34.203125 L 15.84375 -34.203125 L 14.6875 -33.328125 C 14.039062 -32.878906 13.394531 -32.734375 12.75 -32.890625 C 12.101562 -33.054688 11.523438 -33.460938 11.015625 -34.109375 L 10.921875 -34.203125 L 8.890625 -34.203125 L 7.34375 -36.125 L 8.21875 -36.125 L 7.046875 -37.578125 L 6.859375 -37.578125 L 5.3125 -39.515625 L 7.25 -39.515625 L 6.46875 -40.484375 L 7.4375 -40.484375 L 6.671875 -41.453125 L 3.09375 -41.453125 L 2.3125 -42.40625 L 7.34375 -42.40625 L 5.890625 -44.34375 L 9.46875 -44.34375 L 8.890625 -45.109375 C 8.890625 -45.179688 8.875 -45.21875 8.84375 -45.21875 C 8.8125 -45.21875 8.796875 -45.25 8.796875 -45.3125 L 7.921875 -45.3125 C 7.796875 -45.695312 7.734375 -46.019531 7.734375 -46.28125 L 17.78125 -46.28125 C 17.707031 -46.726562 17.769531 -47.207031 17.96875 -47.71875 L 16.609375 -47.71875 C 16.804688 -48.101562 17.066406 -48.425781 17.390625 -48.6875 L -2.3125 -48.6875 L -2.03125 -48.890625 L 0.1875 -50.625 L 4.4375 -50.625 L 6.28125 -52.078125 L 7.53125 -53.03125 L 11.296875 -53.03125 L 13.234375 -54.484375 L 11.015625 -54.484375 L 11.59375 -54.96875 L 9.65625 -54.96875 L 11.59375 -56.421875 L 11.890625 -56.421875 L 13.71875 -57.875 L 14.015625 -57.875 L 15.265625 -58.828125 L 15.359375 -58.828125 L 15.9375 -59.3125 L 16.328125 -59.3125 L 18.75 -61.25 L 12.359375 -61.25 L 14.78125 -63.1875 L 24.34375 -63.1875 L 24.921875 -63.671875 L 0.09375 -63.671875 L 0.765625 -64.15625 L 24.828125 -64.15625 L 26.078125 -65.109375 L 28.40625 -66.953125 L 28.5 -67.046875 L 35.75 -67.046875 C 36.320312 -67.429688 36.960938 -67.625 37.671875 -67.625 L 55.9375 -67.625 C 56.644531 -67.625 57.191406 -67.429688 57.578125 -67.046875 L 50.4375 -67.046875 C 51.070312 -66.535156 51.390625 -65.859375 51.390625 -65.015625 L 51.390625 -64.15625 L 27.34375 -64.15625 L 27.34375 -63.671875 L 52.171875 -63.671875 L 52.171875 -63.1875 L 42.703125 -63.1875 L 42.703125 -61.25 L 49.078125 -61.25 L 49.078125 -59.3125 L 48.78125 -59.3125 L 48.78125 -58.828125 L 48.6875 -58.828125 L 48.6875 -57.875 L 48.40625 -57.875 L 48.40625 -56.421875 L 48.109375 -56.421875 L 48.109375 -54.96875 L 50.046875 -54.96875 L 50.046875 -54.484375 L 52.265625 -54.484375 L 52.265625 -53.03125 L 48.40625 -53.03125 L 48.40625 -52.078125 L 48.5 -52.078125 L 48.5 -50.625 L 44.25 -50.625 L 44.25 -48.6875 L 63.859375 -48.6875 L 63.859375 -47.71875 L 65.21875 -47.71875 Z M 65.21875 -46.28125 "/></g></g><g style="fill:#5ce1e6;fill-opacity:0.4;"><g transform="translate(148.797928, 95.392118)"><path style="stroke:none" d="M 3.859375 -58.359375 L 3.859375 -60.28125 L 3.765625 -60.28125 L 3.765625 -61.734375 L 4.640625 -61.734375 L 4.640625 -62.21875 L 5.21875 -62.21875 L 5.21875 -64.15625 L 4.734375 -64.15625 L 4.734375 -65.59375 L 4.828125 -65.59375 L 4.828125 -67.53125 L 5.21875 -67.53125 L 5.21875 -68.984375 L 5.03125 -68.984375 L 5.03125 -69.84375 C 5.03125 -70.363281 5.09375 -70.71875 5.21875 -70.90625 L 6.1875 -70.90625 L 6.46875 -71.390625 L 5.703125 -71.390625 C 6.210938 -72.097656 6.921875 -72.453125 7.828125 -72.453125 L 24.15625 -72.453125 C 25.050781 -72.453125 25.757812 -72.097656 26.28125 -71.390625 L 27.046875 -71.390625 L 27.34375 -70.90625 L 26.28125 -70.90625 C 26.46875 -70.65625 26.5625 -70.300781 26.5625 -69.84375 L 26.5625 -68.984375 L 26.765625 -68.984375 L 26.765625 -67.53125 L 26.375 -67.53125 L 26.375 -65.59375 L 26.28125 -65.59375 L 26.28125 -64.15625 L 26.765625 -64.15625 L 26.765625 -62.21875 L 26.1875 -62.21875 L 26.1875 -61.734375 L 25.3125 -61.734375 L 25.3125 -60.28125 L 25.40625 -60.28125 L 25.40625 -58.359375 L 26.078125 -58.359375 L 26.078125 -58.15625 C 26.078125 -57.582031 25.851562 -57.003906 25.40625 -56.421875 L 24.25 -56.421875 C 23.800781 -55.835938 23.15625 -55.546875 22.3125 -55.546875 L 5.984375 -55.546875 C 5.148438 -55.546875 4.476562 -55.835938 3.96875 -56.421875 L 5.125 -56.421875 C 4.738281 -56.929688 4.546875 -57.507812 4.546875 -58.15625 L 4.546875 -58.359375 Z M 23.765625 -38.0625 L 32.84375 -38.0625 L 32.84375 -36.125 L 29.5625 -36.125 L 29.5625 -35.171875 L 25.890625 -35.171875 L 25.890625 -33.234375 L 28.6875 -33.234375 L 28.6875 -32.75 L 26.859375 -32.75 L 26.859375 -31.78125 L 27.140625 -31.78125 L 27.140625 -30.8125 L 27.625 -30.8125 L 27.625 -29.375 L 22.796875 -29.375 L 22.796875 -27.921875 L 25.984375 -27.921875 L 25.984375 -26.46875 L 25.40625 -26.46875 L 25.40625 -25.5 L 27.046875 -25.5 L 27.046875 -24.0625 L 27.4375 -24.0625 L 27.4375 -22.609375 L 26.859375 -22.609375 L 26.859375 -21.15625 L 27.34375 -21.15625 L 27.34375 -20.1875 L 26.859375 -20.1875 L 26.859375 -18.265625 L 26.671875 -18.265625 L 26.671875 -16.8125 L 26.28125 -16.8125 L 26.28125 -15.359375 L 26.671875 -15.359375 L 26.671875 -14.390625 L 26.859375 -14.390625 L 26.859375 -12.46875 L 26.46875 -12.46875 L 26.46875 -11.5 L 26.953125 -11.5 L 26.953125 -10.53125 L 26.859375 -10.53125 L 26.859375 -9.078125 L 27.25 -9.078125 L 27.25 -7.625 L 27.53125 -7.625 L 27.53125 -7.15625 L 26.859375 -7.15625 L 26.859375 -5.21875 L 25.5 -5.21875 L 25.5 -3.28125 L 26.46875 -3.28125 L 26.46875 -2.609375 C 26.46875 -2.285156 26.4375 -2.023438 26.375 -1.828125 L 25.703125 -1.828125 C 25.503906 -1.191406 25.148438 -0.710938 24.640625 -0.390625 L 26.5625 -0.390625 C 26.238281 -0.128906 25.757812 0 25.125 0 L 7.828125 0 C 7.242188 0 6.789062 -0.128906 6.46875 -0.390625 L 4.546875 -0.390625 C 3.960938 -0.710938 3.570312 -1.191406 3.375 -1.828125 L 4.0625 -1.828125 C 4 -2.023438 3.96875 -2.285156 3.96875 -2.609375 L 3.96875 -3.28125 L 3 -3.28125 L 3 -5.21875 L 4.34375 -5.21875 L 4.34375 -7.15625 L 5.03125 -7.15625 L 5.03125 -7.625 L 4.734375 -7.625 L 4.734375 -9.078125 L 4.34375 -9.078125 L 4.34375 -10.53125 L 4.4375 -10.53125 L 4.4375 -11.5 L 3.96875 -11.5 L 3.96875 -12.46875 L 4.34375 -12.46875 L 4.34375 -14.390625 L 4.15625 -14.390625 L 4.15625 -15.359375 L 3.765625 -15.359375 L 3.765625 -16.8125 L 4.15625 -16.8125 L 4.15625 -18.265625 L 4.34375 -18.265625 L 4.34375 -20.1875 L 4.828125 -20.1875 L 4.828125 -21.15625 L 4.34375 -21.15625 L 4.34375 -22.609375 L 4.921875 -22.609375 L 4.921875 -24.0625 L 4.546875 -24.0625 L 4.546875 -25.5 L 2.890625 -25.5 L 2.890625 -26.46875 L 3.484375 -26.46875 L 3.484375 -27.921875 L 0.296875 -27.921875 L 0.296875 -29.375 L 5.125 -29.375 L 5.125 -30.8125 L 4.640625 -30.8125 L 4.640625 -31.78125 L 4.34375 -31.78125 L 4.34375 -32.75 L 6.1875 -32.75 L 6.1875 -33.234375 L 3.375 -33.234375 L 3.375 -35.171875 L 7.046875 -35.171875 L 7.046875 -36.125 L 10.34375 -36.125 L 10.34375 -38.0625 L 1.25 -38.0625 L 1.25 -39.03125 L 9.28125 -39.03125 L 9.28125 -40.96875 L 6.375 -40.96875 L 6.375 -42.40625 L 8.109375 -42.40625 L 8.109375 -44.34375 L 5.03125 -44.34375 L 5.03125 -44.828125 L 4.34375 -44.828125 L 4.34375 -45.796875 L 3.765625 -45.796875 L 3.765625 -47.234375 L 4.4375 -47.234375 L 4.4375 -47.625 C 4.4375 -48.332031 4.597656 -48.847656 4.921875 -49.171875 L 5.03125 -49.171875 C 5.539062 -49.878906 6.25 -50.234375 7.15625 -50.234375 L 24.4375 -50.234375 C 25.34375 -50.234375 26.050781 -49.878906 26.5625 -49.171875 L 26.375 -49.171875 C 26.757812 -48.785156 26.953125 -48.269531 26.953125 -47.625 L 26.953125 -47.234375 L 26.28125 -47.234375 L 26.28125 -45.796875 L 26.859375 -45.796875 L 26.859375 -44.828125 L 27.53125 -44.828125 L 27.53125 -44.34375 L 30.625 -44.34375 L 30.625 -42.40625 L 28.890625 -42.40625 L 28.890625 -40.96875 L 31.78125 -40.96875 L 31.78125 -39.03125 L 23.765625 -39.03125 Z M 23.765625 -38.0625 "/></g></g><g style="fill:#5ce1e6;fill-opacity:0.4;"><g transform="translate(170.919807, 95.392118)"><path style="stroke:none" d="M 19.328125 -3.765625 L 31.78125 -3.765625 L 31.78125 -2.3125 L 18.265625 -2.3125 C 18.128906 -1.414062 17.707031 -0.773438 17 -0.390625 L 22.609375 -0.390625 C 22.285156 -0.128906 21.832031 0 21.25 0 L 4.4375 0 C 3.800781 0 3.320312 -0.128906 3 -0.390625 L -2.515625 -0.390625 C -3.222656 -0.773438 -3.640625 -1.414062 -3.765625 -2.3125 L 9.75 -2.3125 L 9.75 -3.765625 L -2.703125 -3.765625 L -2.703125 -5.703125 L -4.4375 -5.703125 L -4.4375 -7.15625 L 9.28125 -7.15625 L 9.28125 -8.59375 L -8.5 -8.59375 L -8.5 -9.078125 L -7.15625 -9.078125 L -7.15625 -10.53125 L 3.96875 -10.53125 L 3.96875 -11.015625 L -5.125 -11.015625 L -5.125 -11.5 L 2.796875 -11.5 L 2.796875 -12.46875 L 1.734375 -12.46875 L 1.734375 -13.90625 L 4.0625 -13.90625 L 4.0625 -14.390625 L 5.125 -14.390625 L 5.125 -16.328125 L 5.40625 -16.328125 L 5.40625 -16.8125 L 6.09375 -16.8125 L 6.09375 -18.75 L 8.5 -18.75 L 8.5 -19.21875 L 4.25 -19.21875 L 4.25 -19.421875 C 4.25 -19.992188 4.472656 -20.570312 4.921875 -21.15625 L 8.109375 -21.15625 C 8.628906 -21.738281 9.273438 -22.03125 10.046875 -22.03125 L 26.859375 -22.03125 C 27.691406 -22.03125 28.335938 -21.738281 28.796875 -21.15625 L 25.703125 -21.15625 C 26.085938 -20.707031 26.28125 -20.128906 26.28125 -19.421875 L 26.28125 -19.21875 L 30.53125 -19.21875 L 30.53125 -18.75 L 28.109375 -18.75 L 28.109375 -16.8125 L 27.4375 -16.8125 L 27.4375 -16.328125 L 27.140625 -16.328125 L 27.140625 -14.390625 L 26.078125 -14.390625 L 26.078125 -13.90625 L 23.765625 -13.90625 L 23.765625 -12.46875 L 24.828125 -12.46875 L 24.828125 -11.5 L 16.90625 -11.5 L 16.90625 -11.015625 L 25.984375 -11.015625 L 25.984375 -10.53125 L 14.875 -10.53125 L 14.875 -9.078125 L 13.53125 -9.078125 L 13.53125 -8.59375 L 31.296875 -8.59375 L 31.296875 -7.15625 L 17.578125 -7.15625 L 17.578125 -5.703125 L 19.328125 -5.703125 Z M 19.328125 -3.765625 "/></g></g><g style="fill:#5ce1e6;fill-opacity:0.4;"><g transform="translate(191.979046, 95.392118)"><path style="stroke:none" d="M 54.96875 -5.21875 L 54.96875 -4.25 L 63.375 -4.25 L 63.375 -2.609375 C 63.375 -2.484375 63.34375 -2.382812 63.28125 -2.3125 L 58.734375 -2.3125 C 58.609375 -1.414062 58.191406 -0.773438 57.484375 -0.390625 L 56.609375 -0.390625 C 56.285156 -0.128906 55.835938 0 55.265625 0 L 38.359375 0 C 37.773438 0 37.320312 -0.128906 37 -0.390625 L 37.78125 -0.390625 C 37.132812 -0.835938 36.742188 -1.476562 36.609375 -2.3125 L 41.25 -2.3125 L 41.25 -4.25 L 37.390625 -4.25 C 37.066406 -3.925781 36.726562 -3.601562 36.375 -3.28125 C 36.019531 -2.957031 35.648438 -2.632812 35.265625 -2.3125 L 34.203125 -2.3125 C 33.035156 -1.476562 31.875 -0.835938 30.71875 -0.390625 L 27.625 -0.390625 C 27.175781 -0.191406 26.675781 -0.015625 26.125 0.140625 C 25.582031 0.304688 25.019531 0.453125 24.4375 0.578125 L 23.671875 0.578125 C 23.023438 0.703125 22.363281 0.796875 21.6875 0.859375 C 21.007812 0.929688 20.316406 0.96875 19.609375 0.96875 C 18.835938 0.96875 18.082031 0.929688 17.34375 0.859375 C 16.601562 0.796875 15.878906 0.703125 15.171875 0.578125 L 15.9375 0.578125 C 15.289062 0.453125 14.660156 0.304688 14.046875 0.140625 C 13.441406 -0.015625 12.847656 -0.191406 12.265625 -0.390625 L 15.265625 -0.390625 C 13.847656 -0.898438 12.5625 -1.539062 11.40625 -2.3125 L 12.46875 -2.3125 C 12.007812 -2.632812 11.585938 -2.957031 11.203125 -3.28125 C 10.816406 -3.601562 10.429688 -3.925781 10.046875 -4.25 L 5.21875 -4.25 L 4.34375 -5.21875 C 4.28125 -5.34375 4.179688 -5.5 4.046875 -5.6875 C 3.921875 -5.882812 3.796875 -6.050781 3.671875 -6.1875 L 6.5625 -6.1875 C 6.4375 -6.4375 6.289062 -6.675781 6.125 -6.90625 C 5.96875 -7.132812 5.828125 -7.375 5.703125 -7.625 L 4.828125 -7.625 C 4.828125 -7.695312 4.765625 -7.859375 4.640625 -8.109375 L 3.765625 -8.109375 L 3.484375 -8.59375 L 3.578125 -8.59375 L 3 -10.046875 L 2.515625 -10.046875 C 2.453125 -10.304688 2.382812 -10.546875 2.3125 -10.765625 C 2.25 -10.992188 2.1875 -11.238281 2.125 -11.5 L -1.546875 -11.5 C -1.734375 -12.207031 -1.828125 -12.847656 -1.828125 -13.421875 L 1.359375 -13.421875 L 1.359375 -14.390625 C 1.359375 -14.710938 1.359375 -15.050781 1.359375 -15.40625 C 1.359375 -15.757812 1.390625 -16.066406 1.453125 -16.328125 L 4.34375 -16.328125 C 4.40625 -16.648438 4.46875 -16.988281 4.53125 -17.34375 C 4.601562 -17.695312 4.671875 -18.003906 4.734375 -18.265625 L 2.03125 -18.265625 L 2.21875 -18.75 L 2.3125 -18.75 L 2.515625 -19.21875 L 2.421875 -19.21875 C 2.546875 -19.476562 2.671875 -19.71875 2.796875 -19.9375 C 2.929688 -20.164062 3.03125 -20.410156 3.09375 -20.671875 L -2.609375 -20.671875 L -2.03125 -21.640625 L -4.15625 -21.640625 C -3.957031 -21.835938 -3.828125 -22 -3.765625 -22.125 L -0.296875 -22.125 C -0.160156 -22.25 -0.03125 -22.40625 0.09375 -22.59375 C 0.226562 -22.789062 0.359375 -22.957031 0.484375 -23.09375 L 0.671875 -23.09375 C 1.316406 -23.863281 1.992188 -24.503906 2.703125 -25.015625 L -5.21875 -25.015625 C -4.769531 -25.335938 -4.300781 -25.675781 -3.8125 -26.03125 C -3.332031 -26.382812 -2.832031 -26.691406 -2.3125 -26.953125 L 3 -26.953125 L 3.859375 -27.4375 L 6.5625 -27.4375 C 6.695312 -27.5625 6.859375 -27.65625 7.046875 -27.71875 C 7.242188 -27.789062 7.40625 -27.859375 7.53125 -27.921875 L 8.6875 -27.921875 C 9.851562 -28.503906 11.113281 -28.988281 12.46875 -29.375 L 18.359375 -29.375 C 19.253906 -29.695312 20.171875 -29.96875 21.109375 -30.1875 C 22.046875 -30.414062 23.03125 -30.625 24.0625 -30.8125 L 21.640625 -30.8125 L 23.1875 -31.109375 L 33.421875 -32.75 L 33.421875 -33.234375 L 38.359375 -33.234375 L 38.359375 -33.71875 L 29.078125 -33.71875 L 29.078125 -34.203125 L 34.59375 -34.203125 C 34.59375 -34.523438 34.59375 -34.796875 34.59375 -35.015625 C 34.59375 -35.242188 34.554688 -35.457031 34.484375 -35.65625 C 34.421875 -36.226562 34.195312 -36.707031 33.8125 -37.09375 L 32.171875 -37.09375 C 32.109375 -37.15625 31.945312 -37.253906 31.6875 -37.390625 L 31.015625 -37.09375 L 29.375 -37.09375 C 29.113281 -36.90625 28.851562 -36.695312 28.59375 -36.46875 C 28.332031 -36.238281 28.046875 -35.96875 27.734375 -35.65625 L 27.828125 -35.65625 C 27.117188 -34.945312 26.21875 -34.59375 25.125 -34.59375 L 8.6875 -34.59375 C 7.726562 -34.59375 7.085938 -34.945312 6.765625 -35.65625 L 6.671875 -35.65625 C 6.472656 -35.96875 6.40625 -36.320312 6.46875 -36.71875 L 6.46875 -37.09375 L 8.015625 -37.09375 C 8.078125 -37.226562 8.109375 -37.390625 8.109375 -37.578125 L 1.9375 -37.578125 C 1.9375 -37.835938 2 -38.160156 2.125 -38.546875 L 16.03125 -38.546875 C 16.03125 -38.609375 16.097656 -38.769531 16.234375 -39.03125 L 7.625 -39.03125 C 7.820312 -39.675781 8.113281 -40.320312 8.5 -40.96875 L 10.140625 -40.96875 C 10.335938 -41.289062 10.5625 -41.609375 10.8125 -41.921875 C 11.070312 -42.242188 11.332031 -42.566406 11.59375 -42.890625 L 4.34375 -42.890625 L 5.21875 -43.859375 L 19.21875 -43.859375 C 19.476562 -44.117188 19.753906 -44.359375 20.046875 -44.578125 C 20.335938 -44.804688 20.613281 -45.050781 20.875 -45.3125 L 11.984375 -45.3125 L 12.5625 -45.796875 L 9.859375 -45.796875 C 10.179688 -46.046875 10.535156 -46.285156 10.921875 -46.515625 C 11.304688 -46.742188 11.691406 -46.984375 12.078125 -47.234375 L 16.609375 -47.234375 C 17.960938 -48.015625 19.382812 -48.660156 20.875 -49.171875 L 21.546875 -49.171875 C 23.285156 -49.816406 25.234375 -50.316406 27.390625 -50.671875 C 29.546875 -51.023438 31.910156 -51.203125 34.484375 -51.203125 C 39.765625 -51.203125 44.242188 -50.523438 47.921875 -49.171875 L 47.140625 -49.171875 C 47.847656 -48.910156 48.539062 -48.617188 49.21875 -48.296875 C 49.894531 -47.984375 50.554688 -47.628906 51.203125 -47.234375 L 46.65625 -47.234375 L 48.6875 -45.796875 L 51.390625 -45.796875 L 51.96875 -45.3125 L 60.859375 -45.3125 L 62.3125 -43.859375 L 48.296875 -43.859375 C 48.429688 -43.734375 48.5625 -43.570312 48.6875 -43.375 C 48.820312 -43.1875 48.953125 -43.023438 49.078125 -42.890625 L 56.234375 -42.890625 C 56.484375 -42.640625 56.722656 -42.335938 56.953125 -41.984375 C 57.179688 -41.628906 57.359375 -41.289062 57.484375 -40.96875 L 55.9375 -40.96875 L 56.8125 -39.03125 L 65.40625 -39.03125 C 65.53125 -38.769531 65.59375 -38.609375 65.59375 -38.546875 L 51.6875 -38.546875 C 51.8125 -38.421875 51.890625 -38.257812 51.921875 -38.0625 C 51.953125 -37.875 52.003906 -37.710938 52.078125 -37.578125 L 55.265625 -37.578125 C 55.265625 -37.515625 55.28125 -37.453125 55.3125 -37.390625 C 55.34375 -37.328125 55.359375 -37.226562 55.359375 -37.09375 L 57 -37.09375 L 57.578125 -34.203125 L 51.96875 -34.203125 C 51.96875 -34.140625 51.984375 -34.070312 52.015625 -34 C 52.054688 -33.9375 52.078125 -33.84375 52.078125 -33.71875 L 61.34375 -33.71875 L 61.34375 -33.234375 L 56.515625 -33.234375 L 56.515625 -32.75 C 56.578125 -32.425781 56.609375 -32.101562 56.609375 -31.78125 C 56.609375 -31.457031 56.609375 -31.132812 56.609375 -30.8125 L 59.125 -30.8125 L 59.125 -29.375 L 53.140625 -29.375 L 53.140625 -27.921875 L 52.078125 -27.921875 L 52.078125 -27.4375 L 49.46875 -27.4375 L 49.46875 -26.953125 L 44.15625 -26.953125 L 44.15625 -25.015625 L 52.078125 -25.015625 L 52.078125 -23.09375 L 51.875 -23.09375 L 51.875 -22.125 L 48.40625 -22.125 L 48.40625 -21.640625 L 50.53125 -21.640625 L 50.53125 -20.671875 L 56.90625 -20.671875 L 56.90625 -19.21875 L 55.75 -19.21875 L 55.75 -18.265625 L 56.515625 -18.265625 L 56.515625 -16.328125 L 55.9375 -16.328125 L 55.9375 -13.421875 L 52.75 -13.421875 L 52.75 -11.5 L 56.421875 -11.5 L 56.421875 -10.046875 L 56.90625 -10.046875 L 56.90625 -8.109375 L 57.765625 -8.109375 L 57.765625 -7.625 L 58.546875 -7.625 L 58.546875 -6.1875 L 55.546875 -6.1875 L 55.546875 -5.21875 Z M 26.953125 -37.671875 C 26.503906 -37.671875 26.179688 -37.640625 25.984375 -37.578125 L 28.015625 -37.578125 C 27.828125 -37.640625 27.472656 -37.671875 26.953125 -37.671875 Z M 27.625 -20.875 L 26.765625 -20.671875 L 27.625 -20.671875 Z M 24.34375 -18.265625 L 27.046875 -18.265625 C 26.335938 -17.742188 25.984375 -17.097656 25.984375 -16.328125 L 23.09375 -16.328125 L 23.09375 -16.03125 C 23.09375 -15.394531 23.316406 -14.847656 23.765625 -14.390625 C 24.085938 -13.941406 24.734375 -13.617188 25.703125 -13.421875 L 28.015625 -13.421875 C 28.984375 -13.617188 29.820312 -13.941406 30.53125 -14.390625 C 31.101562 -14.910156 31.648438 -15.554688 32.171875 -16.328125 L 32.65625 -16.328125 C 32.78125 -16.648438 32.90625 -16.953125 33.03125 -17.234375 C 33.164062 -17.523438 33.265625 -17.867188 33.328125 -18.265625 L 32.5625 -18.265625 C 32.5625 -18.390625 32.578125 -18.484375 32.609375 -18.546875 C 32.640625 -18.609375 32.65625 -18.675781 32.65625 -18.75 L 32.75 -18.75 L 32.75 -19.21875 L 33.90625 -19.21875 C 33.96875 -19.476562 34 -19.71875 34 -19.9375 C 34 -20.164062 34 -20.410156 34 -20.671875 L 32.359375 -20.671875 L 27.625 -19.609375 C 27.375 -19.546875 27.132812 -19.484375 26.90625 -19.421875 C 26.675781 -19.359375 26.46875 -19.289062 26.28125 -19.21875 C 26.082031 -19.15625 25.882812 -19.09375 25.6875 -19.03125 C 25.5 -18.96875 25.34375 -18.875 25.21875 -18.75 L 25.125 -18.75 C 24.988281 -18.675781 24.851562 -18.609375 24.71875 -18.546875 C 24.59375 -18.484375 24.46875 -18.390625 24.34375 -18.265625 Z M 24.828125 -13.421875 L 22.40625 -13.421875 C 22.664062 -13.359375 23.054688 -13.328125 23.578125 -13.328125 C 23.765625 -13.328125 23.96875 -13.328125 24.1875 -13.328125 C 24.414062 -13.328125 24.628906 -13.359375 24.828125 -13.421875 Z M 24.828125 -13.421875 "/></g></g><g style="fill:#5ce1e6;fill-opacity:0.4;"><g transform="translate(242.985722, 95.392118)"><path style="stroke:none" d="M 3.859375 -58.359375 L 3.859375 -60.28125 L 3.765625 -60.28125 L 3.765625 -61.734375 L 4.640625 -61.734375 L 4.640625 -62.21875 L 5.21875 -62.21875 L 5.21875 -64.15625 L 4.734375 -64.15625 L 4.734375 -65.59375 L 4.828125 -65.59375 L 4.828125 -67.53125 L 5.21875 -67.53125 L 5.21875 -68.984375 L 5.03125 -68.984375 L 5.03125 -69.84375 C 5.03125 -70.363281 5.09375 -70.71875 5.21875 -70.90625 L 6.1875 -70.90625 L 6.46875 -71.390625 L 5.703125 -71.390625 C 6.210938 -72.097656 6.921875 -72.453125 7.828125 -72.453125 L 24.15625 -72.453125 C 25.050781 -72.453125 25.757812 -72.097656 26.28125 -71.390625 L 27.046875 -71.390625 L 27.34375 -70.90625 L 26.28125 -70.90625 C 26.46875 -70.65625 26.5625 -70.300781 26.5625 -69.84375 L 26.5625 -68.984375 L 26.765625 -68.984375 L 26.765625 -67.53125 L 26.375 -67.53125 L 26.375 -65.59375 L 26.28125 -65.59375 L 26.28125 -64.15625 L 26.765625 -64.15625 L 26.765625 -62.21875 L 26.1875 -62.21875 L 26.1875 -61.734375 L 25.3125 -61.734375 L 25.3125 -60.28125 L 25.40625 -60.28125 L 25.40625 -58.359375 L 26.078125 -58.359375 L 26.078125 -58.15625 C 26.078125 -57.582031 25.851562 -57.003906 25.40625 -56.421875 L 24.25 -56.421875 C 23.800781 -55.835938 23.15625 -55.546875 22.3125 -55.546875 L 5.984375 -55.546875 C 5.148438 -55.546875 4.476562 -55.835938 3.96875 -56.421875 L 5.125 -56.421875 C 4.738281 -56.929688 4.546875 -57.507812 4.546875 -58.15625 L 4.546875 -58.359375 Z M 23.765625 -38.0625 L 32.84375 -38.0625 L 32.84375 -36.125 L 29.5625 -36.125 L 29.5625 -35.171875 L 25.890625 -35.171875 L 25.890625 -33.234375 L 28.6875 -33.234375 L 28.6875 -32.75 L 26.859375 -32.75 L 26.859375 -31.78125 L 27.140625 -31.78125 L 27.140625 -30.8125 L 27.625 -30.8125 L 27.625 -29.375 L 22.796875 -29.375 L 22.796875 -27.921875 L 25.984375 -27.921875 L 25.984375 -26.46875 L 25.40625 -26.46875 L 25.40625 -25.5 L 27.046875 -25.5 L 27.046875 -24.0625 L 27.4375 -24.0625 L 27.4375 -22.609375 L 26.859375 -22.609375 L 26.859375 -21.15625 L 27.34375 -21.15625 L 27.34375 -20.1875 L 26.859375 -20.1875 L 26.859375 -18.265625 L 26.671875 -18.265625 L 26.671875 -16.8125 L 26.28125 -16.8125 L 26.28125 -15.359375 L 26.671875 -15.359375 L 26.671875 -14.390625 L 26.859375 -14.390625 L 26.859375 -12.46875 L 26.46875 -12.46875 L 26.46875 -11.5 L 26.953125 -11.5 L 26.953125 -10.53125 L 26.859375 -10.53125 L 26.859375 -9.078125 L 27.25 -9.078125 L 27.25 -7.625 L 27.53125 -7.625 L 27.53125 -7.15625 L 26.859375 -7.15625 L 26.859375 -5.21875 L 25.5 -5.21875 L 25.5 -3.28125 L 26.46875 -3.28125 L 26.46875 -2.609375 C 26.46875 -2.285156 26.4375 -2.023438 26.375 -1.828125 L 25.703125 -1.828125 C 25.503906 -1.191406 25.148438 -0.710938 24.640625 -0.390625 L 26.5625 -0.390625 C 26.238281 -0.128906 25.757812 0 25.125 0 L 7.828125 0 C 7.242188 0 6.789062 -0.128906 6.46875 -0.390625 L 4.546875 -0.390625 C 3.960938 -0.710938 3.570312 -1.191406 3.375 -1.828125 L 4.0625 -1.828125 C 4 -2.023438 3.96875 -2.285156 3.96875 -2.609375 L 3.96875 -3.28125 L 3 -3.28125 L 3 -5.21875 L 4.34375 -5.21875 L 4.34375 -7.15625 L 5.03125 -7.15625 L 5.03125 -7.625 L 4.734375 -7.625 L 4.734375 -9.078125 L 4.34375 -9.078125 L 4.34375 -10.53125 L 4.4375 -10.53125 L 4.4375 -11.5 L 3.96875 -11.5 L 3.96875 -12.46875 L 4.34375 -12.46875 L 4.34375 -14.390625 L 4.15625 -14.390625 L 4.15625 -15.359375 L 3.765625 -15.359375 L 3.765625 -16.8125 L 4.15625 -16.8125 L 4.15625 -18.265625 L 4.34375 -18.265625 L 4.34375 -20.1875 L 4.828125 -20.1875 L 4.828125 -21.15625 L 4.34375 -21.15625 L 4.34375 -22.609375 L 4.921875 -22.609375 L 4.921875 -24.0625 L 4.546875 -24.0625 L 4.546875 -25.5 L 2.890625 -25.5 L 2.890625 -26.46875 L 3.484375 -26.46875 L 3.484375 -27.921875 L 0.296875 -27.921875 L 0.296875 -29.375 L 5.125 -29.375 L 5.125 -30.8125 L 4.640625 -30.8125 L 4.640625 -31.78125 L 4.34375 -31.78125 L 4.34375 -32.75 L 6.1875 -32.75 L 6.1875 -33.234375 L 3.375 -33.234375 L 3.375 -35.171875 L 7.046875 -35.171875 L 7.046875 -36.125 L 10.34375 -36.125 L 10.34375 -38.0625 L 1.25 -38.0625 L 1.25 -39.03125 L 9.28125 -39.03125 L 9.28125 -40.96875 L 6.375 -40.96875 L 6.375 -42.40625 L 8.109375 -42.40625 L 8.109375 -44.34375 L 5.03125 -44.34375 L 5.03125 -44.828125 L 4.34375 -44.828125 L 4.34375 -45.796875 L 3.765625 -45.796875 L 3.765625 -47.234375 L 4.4375 -47.234375 L 4.4375 -47.625 C 4.4375 -48.332031 4.597656 -48.847656 4.921875 -49.171875 L 5.03125 -49.171875 C 5.539062 -49.878906 6.25 -50.234375 7.15625 -50.234375 L 24.4375 -50.234375 C 25.34375 -50.234375 26.050781 -49.878906 26.5625 -49.171875 L 26.375 -49.171875 C 26.757812 -48.785156 26.953125 -48.269531 26.953125 -47.625 L 26.953125 -47.234375 L 26.28125 -47.234375 L 26.28125 -45.796875 L 26.859375 -45.796875 L 26.859375 -44.828125 L 27.53125 -44.828125 L 27.53125 -44.34375 L 30.625 -44.34375 L 30.625 -42.40625 L 28.890625 -42.40625 L 28.890625 -40.96875 L 31.78125 -40.96875 L 31.78125 -39.03125 L 23.765625 -39.03125 Z M 23.765625 -38.0625 "/></g></g><g clip-rule="nonzero" clip-path="url(#d469c3f148)"><g style="fill:#5ce1e6;fill-opacity:1;"><g transform="translate(1.072102, 91.12248)"><path style="stroke:none" d="M 44.921875 -44.828125 L 44.921875 -43.375 L 49.078125 -43.375 L 49.078125 -42.40625 L 44.734375 -42.40625 L 44.734375 -41.453125 L 46.5625 -41.453125 L 46.5625 -39.515625 L 46.859375 -39.515625 L 46.859375 -37.578125 L 48.6875 -37.578125 L 48.6875 -36.609375 L 46.078125 -36.609375 L 46.078125 -35.9375 C 46.078125 -35.613281 46.046875 -35.359375 45.984375 -35.171875 L 45.5 -35.171875 C 45.238281 -34.460938 44.851562 -33.976562 44.34375 -33.71875 L 45.21875 -33.71875 C 44.894531 -33.457031 44.441406 -33.328125 43.859375 -33.328125 L 32.84375 -33.328125 L 32.84375 -32.265625 L 32.453125 -32.265625 L 32.453125 -30.328125 L 31.78125 -30.328125 L 31.78125 -29.375 L 33.046875 -29.375 L 33.046875 -28.40625 L 32.84375 -28.40625 L 32.84375 -27.4375 L 31.109375 -27.4375 L 31.109375 -25.5 L 37.484375 -25.5 L 37.484375 -23.578125 L 44.734375 -23.578125 L 44.734375 -21.640625 L 37.09375 -21.640625 L 37.09375 -20.671875 L 46.953125 -20.671875 L 46.953125 -19.21875 L 33.8125 -19.21875 L 33.8125 -18.75 L 30.8125 -18.75 L 30.8125 -16.8125 L 35.546875 -16.8125 L 35.546875 -15.84375 L 37.390625 -15.84375 L 37.390625 -15.359375 L 38.359375 -15.359375 L 38.359375 -13.421875 L 34.390625 -13.421875 L 34.390625 -11.984375 L 38.640625 -11.984375 L 38.640625 -10.046875 L 38.84375 -10.046875 L 38.84375 -8.109375 L 34.78125 -8.109375 L 34.78125 -6.671875 L 34.390625 -6.671875 L 34.390625 -6.1875 L 32.84375 -6.1875 L 32.84375 -4.25 L 29.46875 -4.25 L 29.46875 -2.3125 L 31.875 -2.3125 C 31.75 -1.414062 31.363281 -0.773438 30.71875 -0.390625 L 31.59375 -0.390625 C 31.269531 -0.128906 30.816406 0 30.234375 0 L 13.328125 0 C 12.753906 0 12.304688 -0.128906 11.984375 -0.390625 L 11.015625 -0.390625 C 10.367188 -0.773438 9.984375 -1.414062 9.859375 -2.3125 L 7.34375 -2.3125 L 7.34375 -4.25 L 10.71875 -4.25 L 10.71875 -6.1875 L 12.265625 -6.1875 L 12.265625 -6.671875 L 12.65625 -6.671875 L 12.65625 -8.109375 L 16.71875 -8.109375 L 16.71875 -10.046875 L 16.515625 -10.046875 L 16.515625 -11.984375 L 12.265625 -11.984375 L 12.265625 -13.421875 L 16.234375 -13.421875 L 16.234375 -15.359375 L 15.265625 -15.359375 L 15.265625 -15.84375 L 13.421875 -15.84375 L 13.421875 -16.8125 L 8.6875 -16.8125 L 8.6875 -18.75 L 11.6875 -18.75 L 11.6875 -19.21875 L 24.828125 -19.21875 L 24.828125 -20.671875 L 14.96875 -20.671875 L 14.96875 -21.640625 L 22.609375 -21.640625 L 22.609375 -23.578125 L 15.359375 -23.578125 L 15.359375 -25.5 L 8.984375 -25.5 L 8.984375 -27.4375 L 10.71875 -27.4375 L 10.71875 -28.40625 L 10.921875 -28.40625 L 10.921875 -29.375 L 9.65625 -29.375 L 9.65625 -30.328125 L 10.34375 -30.328125 L 10.34375 -32.265625 L 10.71875 -32.265625 L 10.71875 -33.328125 L 4.0625 -33.328125 C 3.476562 -33.328125 3.023438 -33.457031 2.703125 -33.71875 L 1.828125 -33.71875 C 1.316406 -33.976562 0.929688 -34.460938 0.671875 -35.171875 L 1.25 -35.171875 C 1.1875 -35.296875 1.140625 -35.421875 1.109375 -35.546875 C 1.078125 -35.679688 1.0625 -35.8125 1.0625 -35.9375 L 1.0625 -36.609375 L 3.671875 -36.609375 L 3.671875 -37.578125 L 1.828125 -37.578125 L 1.828125 -39.515625 L 1.546875 -39.515625 L 1.546875 -41.453125 L -0.296875 -41.453125 L -0.296875 -42.40625 L 4.0625 -42.40625 L 4.0625 -43.375 L -0.09375 -43.375 L -0.09375 -44.828125 L 1.546875 -44.828125 L 1.546875 -45.796875 L 1.453125 -45.796875 L 1.453125 -47.234375 L 2.21875 -47.234375 L 2.21875 -47.625 C 2.21875 -48.070312 2.316406 -48.425781 2.515625 -48.6875 L 7.25 -48.6875 C 7.695312 -49.71875 8.46875 -50.234375 9.5625 -50.234375 L 16.234375 -50.234375 L 16.234375 -50.625 L 17.78125 -50.625 L 17.78125 -52.5625 L 7.25 -52.5625 L 7.25 -53.515625 L 11.984375 -53.515625 C 12.046875 -53.648438 12.078125 -53.8125 12.078125 -54 L 11.203125 -54 C 11.203125 -54.257812 11.21875 -54.5 11.25 -54.71875 C 11.28125 -54.945312 11.332031 -55.191406 11.40625 -55.453125 L 10.625 -55.453125 C 10.6875 -55.773438 10.75 -56.113281 10.8125 -56.46875 C 10.882812 -56.820312 10.953125 -57.128906 11.015625 -57.390625 L 10.8125 -57.390625 C 10.8125 -57.515625 10.828125 -57.609375 10.859375 -57.671875 C 10.898438 -57.734375 10.921875 -57.800781 10.921875 -57.875 L 11.59375 -57.875 C 11.59375 -58 11.609375 -58.09375 11.640625 -58.15625 C 11.671875 -58.21875 11.6875 -58.285156 11.6875 -58.359375 L 11.5 -58.359375 C 11.5625 -58.609375 11.625 -58.847656 11.6875 -59.078125 C 11.75 -59.304688 11.816406 -59.546875 11.890625 -59.796875 L 11.984375 -59.796875 C 12.109375 -60.117188 12.234375 -60.457031 12.359375 -60.8125 C 12.492188 -61.164062 12.65625 -61.472656 12.84375 -61.734375 L 13.234375 -61.734375 C 13.359375 -62.054688 13.519531 -62.378906 13.71875 -62.703125 L 11.78125 -62.703125 C 12.164062 -63.347656 12.617188 -63.988281 13.140625 -64.625 L 11.890625 -64.625 L 13.328125 -66.078125 L 15.265625 -66.078125 C 15.585938 -66.335938 15.890625 -66.578125 16.171875 -66.796875 C 16.460938 -67.023438 16.769531 -67.269531 17.09375 -67.53125 L 16.515625 -67.53125 C 17.421875 -68.175781 18.320312 -68.660156 19.21875 -68.984375 L 19.125 -68.984375 C 19.320312 -69.109375 19.515625 -69.203125 19.703125 -69.265625 C 19.898438 -69.328125 20.09375 -69.394531 20.28125 -69.46875 L 18.75 -69.46875 C 20.800781 -70.238281 23.019531 -70.765625 25.40625 -71.046875 C 27.789062 -71.335938 30.269531 -71.484375 32.84375 -71.484375 L 41.828125 -71.484375 C 43.242188 -71.484375 44.113281 -70.8125 44.4375 -69.46875 L 45.890625 -69.46875 C 45.953125 -69.332031 45.984375 -69.171875 45.984375 -68.984375 L 46.078125 -68.984375 L 46.078125 -67.53125 L 46.65625 -67.53125 L 46.65625 -66.078125 L 44.734375 -66.078125 L 44.734375 -64.625 L 45.984375 -64.625 L 45.984375 -62.703125 L 47.921875 -62.703125 L 47.921875 -61.734375 L 47.53125 -61.734375 L 47.53125 -59.796875 L 47.4375 -59.796875 L 47.4375 -58.359375 L 47.625 -58.359375 L 47.625 -57.875 L 47.046875 -57.875 L 47.046875 -57.390625 L 47.140625 -57.390625 L 47.140625 -57.1875 C 47.140625 -56.476562 46.914062 -55.898438 46.46875 -55.453125 L 47.234375 -55.453125 C 46.785156 -54.867188 46.113281 -54.578125 45.21875 -54.578125 L 37.390625 -54.578125 C 36.160156 -54.578125 35.257812 -54.382812 34.6875 -54 L 35.453125 -54 C 35.328125 -53.9375 35.132812 -53.773438 34.875 -53.515625 L 30.140625 -53.515625 C 29.816406 -53.191406 29.625 -52.875 29.5625 -52.5625 L 40.09375 -52.5625 C 40.03125 -52.363281 39.984375 -52.164062 39.953125 -51.96875 C 39.921875 -51.78125 39.90625 -51.585938 39.90625 -51.390625 L 39.90625 -50.625 L 38.359375 -50.625 L 38.359375 -50.234375 L 49.375 -50.234375 C 50.53125 -50.234375 51.332031 -49.71875 51.78125 -48.6875 L 47.046875 -48.6875 C 47.171875 -48.300781 47.234375 -47.945312 47.234375 -47.625 L 47.234375 -47.234375 L 46.46875 -47.234375 L 46.46875 -45.796875 L 46.5625 -45.796875 L 46.5625 -44.828125 Z M 44.921875 -44.828125 "/></g></g></g><g style="fill:#5ce1e6;fill-opacity:1;"><g transform="translate(39.520176, 91.12248)"><path style="stroke:none" d="M 71.203125 -43.859375 L 71.203125 -42.890625 L 60.671875 -42.890625 C 60.671875 -42.828125 60.6875 -42.765625 60.71875 -42.703125 C 60.75 -42.640625 60.765625 -42.539062 60.765625 -42.40625 L 67.53125 -42.40625 L 67.53125 -41.921875 L 65.015625 -41.921875 C 65.078125 -41.671875 65.109375 -41.367188 65.109375 -41.015625 C 65.109375 -40.660156 65.109375 -40.320312 65.109375 -40 L 64.828125 -40 L 64.828125 -38.546875 L 60.484375 -38.546875 L 60.484375 -37.09375 L 64.4375 -37.09375 L 64.4375 -35.65625 L 65.5 -35.65625 L 65.5 -34.203125 L 65.21875 -34.203125 L 65.21875 -32.75 L 61.828125 -32.75 L 61.828125 -30.8125 L 66.953125 -30.8125 L 66.953125 -28.890625 L 62.015625 -28.890625 L 61.921875 -27.921875 L 63.953125 -27.921875 C 63.953125 -27.660156 63.953125 -27.414062 63.953125 -27.1875 C 63.953125 -26.96875 63.921875 -26.726562 63.859375 -26.46875 L 65.109375 -26.46875 C 65.046875 -26.34375 65.015625 -26.179688 65.015625 -25.984375 C 65.015625 -25.796875 65.015625 -25.632812 65.015625 -25.5 L 66.953125 -25.5 L 66.953125 -24.0625 L 69.46875 -24.0625 L 69.46875 -23.765625 C 69.394531 -23.503906 69.359375 -23.242188 69.359375 -22.984375 C 69.359375 -22.734375 69.328125 -22.445312 69.265625 -22.125 L 68.984375 -22.125 L 68.875 -21.15625 L 63.375 -21.15625 C 63.3125 -20.832031 63.265625 -20.507812 63.234375 -20.1875 C 63.203125 -19.863281 63.117188 -19.539062 62.984375 -19.21875 L 66.46875 -19.21875 L 66.171875 -17.78125 L 63.859375 -17.78125 L 63.28125 -15.84375 L 61.734375 -15.84375 L 61.15625 -14.390625 L 59.21875 -14.390625 C 59.09375 -14.066406 58.945312 -13.742188 58.78125 -13.421875 C 58.625 -13.109375 58.445312 -12.789062 58.25 -12.46875 L 55.640625 -12.46875 C 55.453125 -12.144531 55.257812 -11.820312 55.0625 -11.5 C 54.875 -11.175781 54.679688 -10.851562 54.484375 -10.53125 L 59.421875 -10.53125 C 59.160156 -10.207031 58.914062 -9.882812 58.6875 -9.5625 C 58.46875 -9.238281 58.226562 -8.914062 57.96875 -8.59375 L 58.9375 -8.59375 L 58.453125 -8.109375 L 60.375 -8.109375 L 59.515625 -7.15625 L 56.125 -7.15625 L 55.15625 -6.1875 L 53.625 -6.1875 C 52.78125 -5.476562 51.941406 -4.832031 51.109375 -4.25 L 44.640625 -4.25 L 42.21875 -2.796875 L 50.625 -2.796875 C 49.53125 -2.222656 48.4375 -1.742188 47.34375 -1.359375 L 50.234375 -1.359375 C 49.398438 -1.097656 48.5625 -0.835938 47.71875 -0.578125 C 46.882812 -0.316406 46.015625 -0.09375 45.109375 0.09375 L 45.3125 0.09375 C 44.863281 0.15625 44.394531 0.234375 43.90625 0.328125 C 43.425781 0.429688 42.925781 0.515625 42.40625 0.578125 L 52.265625 0.578125 C 51.359375 0.703125 50.40625 0.796875 49.40625 0.859375 C 48.414062 0.929688 47.375 0.96875 46.28125 0.96875 C 45.25 0.96875 44.234375 0.929688 43.234375 0.859375 C 42.234375 0.796875 41.28125 0.703125 40.375 0.578125 L 30.4375 0.578125 C 29.976562 0.515625 29.507812 0.429688 29.03125 0.328125 C 28.550781 0.234375 28.050781 0.15625 27.53125 0.09375 L 27.4375 0.09375 C 25.5 -0.289062 23.789062 -0.773438 22.3125 -1.359375 L 19.421875 -1.359375 C 18.253906 -1.742188 17.191406 -2.222656 16.234375 -2.796875 L 7.828125 -2.796875 C 7.378906 -3.054688 6.941406 -3.296875 6.515625 -3.515625 C 6.097656 -3.742188 5.695312 -3.988281 5.3125 -4.25 L 11.78125 -4.25 C 10.945312 -4.832031 10.113281 -5.476562 9.28125 -6.1875 L 10.8125 -6.1875 L 9.859375 -7.15625 L 13.140625 -7.15625 L 12.265625 -8.109375 L 10.34375 -8.109375 C 10.144531 -8.304688 10.015625 -8.46875 9.953125 -8.59375 L 8.984375 -8.59375 C 8.472656 -9.113281 7.988281 -9.757812 7.53125 -10.53125 L 2.515625 -10.53125 C 2.316406 -10.851562 2.117188 -11.175781 1.921875 -11.5 C 1.734375 -11.820312 1.546875 -12.144531 1.359375 -12.46875 L 3.96875 -12.46875 C 3.832031 -12.789062 3.664062 -13.109375 3.46875 -13.421875 C 3.28125 -13.742188 3.125 -14.066406 3 -14.390625 L 5.03125 -14.390625 C 4.769531 -14.910156 4.570312 -15.394531 4.4375 -15.84375 L 5.890625 -15.84375 L 5.3125 -17.78125 L 7.53125 -17.78125 C 7.46875 -18.03125 7.40625 -18.269531 7.34375 -18.5 C 7.28125 -18.726562 7.21875 -18.96875 7.15625 -19.21875 L 8.109375 -19.21875 C 8.046875 -19.539062 8 -19.863281 7.96875 -20.1875 C 7.9375 -20.507812 7.859375 -20.832031 7.734375 -21.15625 L 3.96875 -21.15625 L 3.859375 -22.125 L 2.515625 -22.125 L 2.3125 -23.765625 L 2.3125 -24.0625 L 8.109375 -24.0625 C 8.046875 -24.3125 8.015625 -24.550781 8.015625 -24.78125 C 8.015625 -25.007812 8.015625 -25.25 8.015625 -25.5 L 3.96875 -25.5 L 3.859375 -26.46875 L 4.25 -26.46875 C 4.1875 -26.726562 4.15625 -26.96875 4.15625 -27.1875 C 4.15625 -27.414062 4.15625 -27.660156 4.15625 -27.921875 L 3.09375 -27.921875 L 3 -28.890625 L 2.890625 -28.890625 C 2.890625 -29.210938 2.875 -29.53125 2.84375 -29.84375 C 2.8125 -30.164062 2.796875 -30.488281 2.796875 -30.8125 L 2.421875 -30.8125 C 2.421875 -31.132812 2.398438 -31.457031 2.359375 -31.78125 C 2.328125 -32.101562 2.3125 -32.425781 2.3125 -32.75 L 2.890625 -32.75 L 2.890625 -34.203125 L 4.546875 -34.203125 L 4.546875 -35.65625 L 3.484375 -35.65625 L 3.484375 -37.09375 L 3.1875 -37.09375 L 3.1875 -38.546875 L -0.765625 -38.546875 C -0.703125 -38.804688 -0.671875 -39.046875 -0.671875 -39.265625 C -0.671875 -39.492188 -0.671875 -39.738281 -0.671875 -40 L 5.03125 -40 L 5.03125 -41.921875 L 5.796875 -41.921875 C 5.859375 -42.054688 5.890625 -42.21875 5.890625 -42.40625 L 13.140625 -42.40625 L 13.140625 -42.890625 L 7.25 -42.890625 L 7.34375 -43.859375 L 5.125 -43.859375 L 5.21875 -44.25 C 5.21875 -44.695312 5.25 -45.050781 5.3125 -45.3125 L 4.15625 -45.3125 C 4.21875 -45.570312 4.25 -45.8125 4.25 -46.03125 C 4.25 -46.257812 4.28125 -46.503906 4.34375 -46.765625 L 4.640625 -46.765625 C 4.703125 -46.890625 4.734375 -47.046875 4.734375 -47.234375 C 4.734375 -47.429688 4.765625 -47.59375 4.828125 -47.71875 L 6.09375 -47.71875 C 6.15625 -47.976562 6.21875 -48.21875 6.28125 -48.4375 C 6.34375 -48.664062 6.40625 -48.910156 6.46875 -49.171875 L 0.578125 -49.171875 C 0.703125 -49.429688 0.796875 -49.671875 0.859375 -49.890625 C 0.929688 -50.117188 1 -50.363281 1.0625 -50.625 L 2.515625 -50.625 L 3.09375 -52.078125 L -7.4375 -52.078125 L -6.5625 -54 L -1.359375 -54 L -1.15625 -54.484375 L 3.375 -54.484375 C 3.632812 -55.128906 3.988281 -55.773438 4.4375 -56.421875 L 1.828125 -56.421875 L 2.125 -56.90625 L 5.703125 -56.90625 C 5.960938 -57.226562 6.203125 -57.566406 6.421875 -57.921875 C 6.648438 -58.273438 6.894531 -58.578125 7.15625 -58.828125 L 10.046875 -58.828125 C 10.171875 -58.960938 10.3125 -59.125 10.46875 -59.3125 C 10.632812 -59.507812 10.785156 -59.671875 10.921875 -59.796875 L 11.203125 -59.796875 C 11.398438 -59.929688 11.578125 -60.09375 11.734375 -60.28125 C 11.898438 -60.476562 12.046875 -60.640625 12.171875 -60.765625 L 11.78125 -60.765625 L 13.53125 -62.21875 L 13.71875 -62.21875 L 15.75 -63.671875 L 15.84375 -63.671875 L 17.578125 -64.625 C 17.710938 -64.757812 17.859375 -64.859375 18.015625 -64.921875 C 18.179688 -64.984375 18.359375 -65.046875 18.546875 -65.109375 L 16.609375 -65.109375 C 16.742188 -65.242188 16.90625 -65.34375 17.09375 -65.40625 C 17.289062 -65.46875 17.453125 -65.53125 17.578125 -65.59375 L 18.546875 -65.59375 C 18.929688 -65.789062 19.332031 -65.96875 19.75 -66.125 C 20.175781 -66.289062 20.582031 -66.4375 20.96875 -66.5625 L 21.734375 -66.5625 C 21.992188 -66.6875 22.234375 -66.78125 22.453125 -66.84375 C 22.679688 -66.914062 22.925781 -66.984375 23.1875 -67.046875 L 23 -67.046875 C 23.3125 -67.171875 23.613281 -67.265625 23.90625 -67.328125 C 24.195312 -67.398438 24.503906 -67.46875 24.828125 -67.53125 L 25.015625 -67.53125 C 26.503906 -67.851562 28.035156 -68.109375 29.609375 -68.296875 C 31.191406 -68.492188 32.851562 -68.59375 34.59375 -68.59375 C 37.875 -68.59375 41.023438 -68.238281 44.046875 -67.53125 L 43.859375 -67.53125 C 44.179688 -67.46875 44.503906 -67.398438 44.828125 -67.328125 C 45.148438 -67.265625 45.441406 -67.171875 45.703125 -67.046875 L 45.984375 -67.046875 C 46.242188 -66.984375 46.484375 -66.914062 46.703125 -66.84375 C 46.929688 -66.78125 47.175781 -66.6875 47.4375 -66.5625 L 46.765625 -66.5625 C 47.210938 -66.4375 47.644531 -66.289062 48.0625 -66.125 C 48.476562 -65.96875 48.878906 -65.789062 49.265625 -65.59375 L 48.296875 -65.59375 L 49.375 -65.109375 L 51.296875 -65.109375 C 51.429688 -65.046875 51.578125 -64.984375 51.734375 -64.921875 C 51.890625 -64.859375 52.066406 -64.757812 52.265625 -64.625 L 52.171875 -64.625 L 53.90625 -63.671875 L 53.71875 -63.671875 C 54.101562 -63.410156 54.472656 -63.164062 54.828125 -62.9375 C 55.179688 -62.71875 55.519531 -62.476562 55.84375 -62.21875 L 55.640625 -62.21875 C 55.960938 -61.957031 56.253906 -61.710938 56.515625 -61.484375 C 56.773438 -61.265625 57.035156 -61.023438 57.296875 -60.765625 L 57.671875 -60.765625 C 57.867188 -60.640625 58.046875 -60.476562 58.203125 -60.28125 C 58.367188 -60.09375 58.515625 -59.929688 58.640625 -59.796875 L 58.359375 -59.796875 L 59.21875 -58.828125 L 56.421875 -58.828125 C 56.679688 -58.578125 56.921875 -58.273438 57.140625 -57.921875 C 57.367188 -57.566406 57.613281 -57.226562 57.875 -56.90625 L 54.296875 -56.90625 L 54.578125 -56.421875 L 57.296875 -56.421875 C 57.484375 -56.160156 57.671875 -55.851562 57.859375 -55.5 C 58.054688 -55.144531 58.253906 -54.804688 58.453125 -54.484375 L 53.90625 -54.484375 L 54.203125 -54 L 48.984375 -54 L 49.84375 -52.078125 L 60.28125 -52.078125 L 60.859375 -50.625 L 59.3125 -50.625 C 59.382812 -50.363281 59.453125 -50.117188 59.515625 -49.890625 C 59.578125 -49.671875 59.640625 -49.429688 59.703125 -49.171875 L 58.9375 -49.171875 L 59.21875 -47.71875 L 63.765625 -47.71875 C 63.890625 -47.332031 63.953125 -47.015625 63.953125 -46.765625 L 64.625 -46.765625 C 64.695312 -46.503906 64.75 -46.257812 64.78125 -46.03125 C 64.8125 -45.8125 64.828125 -45.570312 64.828125 -45.3125 L 65.5 -45.3125 C 65.5625 -45.050781 65.59375 -44.695312 65.59375 -44.25 C 65.59375 -44.050781 65.625 -43.921875 65.6875 -43.859375 Z M 30.140625 -49.953125 C 29.109375 -49.953125 28.175781 -49.691406 27.34375 -49.171875 L 32.9375 -49.171875 C 32.226562 -49.691406 31.296875 -49.953125 30.140625 -49.953125 Z M 46.078125 -42.890625 C 46.078125 -43.210938 46.046875 -43.472656 45.984375 -43.671875 L 45.984375 -43.859375 L 40.484375 -43.859375 C 40.484375 -44.117188 40.460938 -44.359375 40.421875 -44.578125 C 40.390625 -44.804688 40.34375 -45.050781 40.28125 -45.3125 L 39.609375 -45.3125 C 39.546875 -45.570312 39.5 -45.8125 39.46875 -46.03125 C 39.4375 -46.257812 39.351562 -46.503906 39.21875 -46.765625 L 38.546875 -46.765625 C 38.484375 -47.015625 38.320312 -47.332031 38.0625 -47.71875 L 33.53125 -47.71875 C 33.394531 -47.914062 33.257812 -48.109375 33.125 -48.296875 C 33 -48.492188 32.84375 -48.65625 32.65625 -48.78125 C 32.332031 -48.457031 32.070312 -48.101562 31.875 -47.71875 L 30.53125 -47.71875 C 30.46875 -47.59375 30.398438 -47.445312 30.328125 -47.28125 C 30.265625 -47.125 30.171875 -46.953125 30.046875 -46.765625 L 29.75 -46.765625 C 29.6875 -46.503906 29.625 -46.257812 29.5625 -46.03125 C 29.5 -45.8125 29.4375 -45.570312 29.375 -45.3125 L 30.53125 -45.3125 C 30.46875 -45.050781 30.414062 -44.804688 30.375 -44.578125 C 30.34375 -44.359375 30.328125 -44.117188 30.328125 -43.859375 L 32.453125 -43.859375 L 32.453125 -42.890625 Z M 42.40625 -41.921875 C 42.40625 -42.117188 42.375 -42.28125 42.3125 -42.40625 L 31.015625 -42.40625 L 31.015625 -41.921875 L 30.234375 -41.921875 C 30.234375 -41.671875 30.21875 -41.367188 30.1875 -41.015625 C 30.15625 -40.660156 30.140625 -40.320312 30.140625 -40 L 24.4375 -40 L 24.4375 -38.546875 L 28.40625 -38.546875 C 28.40625 -38.285156 28.390625 -38.039062 28.359375 -37.8125 C 28.328125 -37.59375 28.3125 -37.351562 28.3125 -37.09375 L 28.6875 -37.09375 L 28.6875 -35.65625 L 29.75 -35.65625 L 29.75 -34.203125 L 28.109375 -34.203125 L 28.109375 -32.75 L 27.53125 -32.75 L 27.53125 -30.8125 L 28.015625 -30.8125 L 28.015625 -28.890625 L 28.203125 -28.890625 L 28.203125 -27.921875 L 29.375 -27.921875 L 29.375 -26.46875 L 29.078125 -26.46875 L 29.078125 -25.5 L 33.140625 -25.5 C 33.203125 -25.3125 33.234375 -25.101562 33.234375 -24.875 C 33.234375 -24.644531 33.234375 -24.4375 33.234375 -24.25 L 33.234375 -24.0625 L 27.4375 -24.0625 L 27.734375 -22.125 L 29.078125 -22.125 L 29.375 -21.15625 L 33.140625 -21.15625 C 33.460938 -20.320312 33.878906 -19.675781 34.390625 -19.21875 L 33.421875 -19.21875 C 34.265625 -18.382812 35.394531 -17.96875 36.8125 -17.96875 C 38.289062 -17.96875 39.445312 -18.382812 40.28125 -19.21875 L 36.8125 -19.21875 C 37.257812 -19.675781 37.644531 -20.320312 37.96875 -21.15625 L 43.46875 -21.15625 L 43.765625 -22.125 L 44.046875 -22.125 L 44.34375 -24.0625 L 41.734375 -24.0625 L 41.734375 -24.25 C 41.796875 -24.4375 41.828125 -24.644531 41.828125 -24.875 C 41.828125 -25.101562 41.828125 -25.3125 41.828125 -25.5 L 39.90625 -25.5 L 39.90625 -26.46875 L 38.734375 -26.46875 L 38.734375 -27.921875 L 36.8125 -27.921875 L 36.8125 -28.890625 L 41.734375 -28.890625 L 41.734375 -30.8125 L 36.609375 -30.8125 L 36.609375 -32.75 L 40 -32.75 L 40 -34.203125 L 40.28125 -34.203125 L 40.28125 -35.65625 L 39.3125 -35.65625 L 39.3125 -37.09375 L 35.265625 -37.09375 L 35.265625 -38.546875 L 39.609375 -38.546875 L 39.609375 -40 L 39.90625 -40 L 39.90625 -41.921875 Z M 42.40625 -41.921875 "/></g></g><g style="fill:#5ce1e6;fill-opacity:1;"><g transform="translate(99.800904, 91.12248)"><path style="stroke:none" d="M 65.21875 -46.28125 L 55.15625 -46.28125 L 55.15625 -45.3125 L 56.03125 -45.3125 L 56.03125 -44.34375 L 52.359375 -44.34375 L 52.359375 -42.40625 L 47.4375 -42.40625 L 47.4375 -41.453125 L 49.953125 -41.453125 L 49.953125 -40.484375 L 50.140625 -40.484375 L 50.140625 -39.515625 L 48.015625 -39.515625 L 48.015625 -37.578125 L 47.921875 -37.578125 L 47.921875 -36.125 L 49.46875 -36.125 L 49.46875 -34.203125 L 45.703125 -34.203125 L 45.703125 -32.75 L 48.296875 -32.75 L 48.296875 -31.296875 L 49.75 -31.296875 L 49.75 -29.375 L 42.21875 -29.375 L 42.21875 -28.40625 L 38.640625 -28.40625 L 38.640625 -26.46875 L 51.109375 -26.46875 L 51.109375 -25.984375 L 42.40625 -25.984375 L 42.40625 -24.0625 L 52.265625 -24.0625 L 52.265625 -23.09375 L 40.96875 -23.09375 L 40.96875 -21.640625 L 48.78125 -21.640625 L 48.78125 -19.703125 L 48.6875 -19.703125 L 48.6875 -17.78125 L 49.5625 -17.78125 L 49.5625 -16.8125 L 51.015625 -16.8125 L 51.015625 -15.359375 L 52.359375 -15.359375 L 52.359375 -13.90625 L 51.203125 -13.90625 L 51.203125 -12.46875 L 48.5 -12.46875 L 48.5 -11.015625 L 48.40625 -11.015625 L 48.40625 -9.078125 L 48.296875 -9.078125 L 48.296875 -8.59375 L 47.53125 -8.59375 L 47.53125 -6.671875 L 47.921875 -6.671875 L 47.921875 -6.1875 L 48.6875 -6.1875 L 48.6875 -5.703125 L 49.953125 -5.703125 L 49.953125 -3.765625 L 51.390625 -3.765625 L 51.390625 -2.609375 C 51.390625 -2.285156 51.359375 -2.023438 51.296875 -1.828125 L 51.5 -1.828125 C 51.363281 -1.253906 51.007812 -0.773438 50.4375 -0.390625 L 47.828125 -0.390625 C 47.503906 -0.128906 47.050781 0 46.46875 0 L 27.53125 0 C 26.957031 0 26.507812 -0.128906 26.1875 -0.390625 L 28.6875 -0.390625 C 28.238281 -0.710938 27.882812 -1.191406 27.625 -1.828125 L 27.34375 -1.828125 C 27.34375 -1.960938 27.328125 -2.09375 27.296875 -2.21875 C 27.265625 -2.351562 27.25 -2.484375 27.25 -2.609375 L 27.25 -3.765625 L 25.796875 -3.765625 L 25.796875 -5.703125 L 24.53125 -5.703125 L 24.53125 -6.1875 L 23.765625 -6.1875 L 23.765625 -6.671875 L 23.375 -6.671875 L 23.375 -8.59375 L 24.15625 -8.59375 L 24.15625 -9.078125 L 24.25 -9.078125 L 24.25 -11.015625 L 24.34375 -11.015625 L 24.34375 -12.46875 L 27.046875 -12.46875 L 27.046875 -13.90625 L 28.203125 -13.90625 L 28.203125 -15.359375 L 26.859375 -15.359375 L 26.859375 -16.8125 L 25.40625 -16.8125 L 25.40625 -17.78125 L 24.53125 -17.78125 L 24.53125 -19.703125 L 24.640625 -19.703125 L 24.640625 -21.640625 L 16.8125 -21.640625 L 16.8125 -23.09375 L 28.109375 -23.09375 L 28.109375 -24.0625 L 18.265625 -24.0625 L 18.265625 -25.984375 L 26.953125 -25.984375 L 26.953125 -26.46875 L 14.484375 -26.46875 L 14.484375 -28.40625 L 18.0625 -28.40625 L 18.0625 -29.375 L 25.59375 -29.375 L 25.59375 -31.296875 L 24.15625 -31.296875 L 24.15625 -32.75 L 21.546875 -32.75 L 21.546875 -34.203125 L 25.3125 -34.203125 L 25.3125 -36.125 L 23.765625 -36.125 L 23.765625 -37.578125 L 23.859375 -37.578125 L 23.859375 -39.515625 L 25.984375 -39.515625 L 25.984375 -40.484375 L 25.796875 -40.484375 L 25.796875 -40.765625 L 25.40625 -40.484375 L 24.4375 -40.484375 L 23.1875 -39.515625 L 21.25 -39.515625 L 18.75 -37.578125 L 18.9375 -37.578125 L 17.09375 -36.125 L 16.234375 -36.125 L 13.71875 -34.203125 L 15.84375 -34.203125 L 14.6875 -33.328125 C 14.039062 -32.878906 13.394531 -32.734375 12.75 -32.890625 C 12.101562 -33.054688 11.523438 -33.460938 11.015625 -34.109375 L 10.921875 -34.203125 L 8.890625 -34.203125 L 7.34375 -36.125 L 8.21875 -36.125 L 7.046875 -37.578125 L 6.859375 -37.578125 L 5.3125 -39.515625 L 7.25 -39.515625 L 6.46875 -40.484375 L 7.4375 -40.484375 L 6.671875 -41.453125 L 3.09375 -41.453125 L 2.3125 -42.40625 L 7.34375 -42.40625 L 5.890625 -44.34375 L 9.46875 -44.34375 L 8.890625 -45.109375 C 8.890625 -45.179688 8.875 -45.21875 8.84375 -45.21875 C 8.8125 -45.21875 8.796875 -45.25 8.796875 -45.3125 L 7.921875 -45.3125 C 7.796875 -45.695312 7.734375 -46.019531 7.734375 -46.28125 L 17.78125 -46.28125 C 17.707031 -46.726562 17.769531 -47.207031 17.96875 -47.71875 L 16.609375 -47.71875 C 16.804688 -48.101562 17.066406 -48.425781 17.390625 -48.6875 L -2.3125 -48.6875 L -2.03125 -48.890625 L 0.1875 -50.625 L 4.4375 -50.625 L 6.28125 -52.078125 L 7.53125 -53.03125 L 11.296875 -53.03125 L 13.234375 -54.484375 L 11.015625 -54.484375 L 11.59375 -54.96875 L 9.65625 -54.96875 L 11.59375 -56.421875 L 11.890625 -56.421875 L 13.71875 -57.875 L 14.015625 -57.875 L 15.265625 -58.828125 L 15.359375 -58.828125 L 15.9375 -59.3125 L 16.328125 -59.3125 L 18.75 -61.25 L 12.359375 -61.25 L 14.78125 -63.1875 L 24.34375 -63.1875 L 24.921875 -63.671875 L 0.09375 -63.671875 L 0.765625 -64.15625 L 24.828125 -64.15625 L 26.078125 -65.109375 L 28.40625 -66.953125 L 28.5 -67.046875 L 35.75 -67.046875 C 36.320312 -67.429688 36.960938 -67.625 37.671875 -67.625 L 55.9375 -67.625 C 56.644531 -67.625 57.191406 -67.429688 57.578125 -67.046875 L 50.4375 -67.046875 C 51.070312 -66.535156 51.390625 -65.859375 51.390625 -65.015625 L 51.390625 -64.15625 L 27.34375 -64.15625 L 27.34375 -63.671875 L 52.171875 -63.671875 L 52.171875 -63.1875 L 42.703125 -63.1875 L 42.703125 -61.25 L 49.078125 -61.25 L 49.078125 -59.3125 L 48.78125 -59.3125 L 48.78125 -58.828125 L 48.6875 -58.828125 L 48.6875 -57.875 L 48.40625 -57.875 L 48.40625 -56.421875 L 48.109375 -56.421875 L 48.109375 -54.96875 L 50.046875 -54.96875 L 50.046875 -54.484375 L 52.265625 -54.484375 L 52.265625 -53.03125 L 48.40625 -53.03125 L 48.40625 -52.078125 L 48.5 -52.078125 L 48.5 -50.625 L 44.25 -50.625 L 44.25 -48.6875 L 63.859375 -48.6875 L 63.859375 -47.71875 L 65.21875 -47.71875 Z M 65.21875 -46.28125 "/></g></g><g style="fill:#5ce1e6;fill-opacity:1;"><g transform="translate(144.528286, 91.12248)"><path style="stroke:none" d="M 3.859375 -58.359375 L 3.859375 -60.28125 L 3.765625 -60.28125 L 3.765625 -61.734375 L 4.640625 -61.734375 L 4.640625 -62.21875 L 5.21875 -62.21875 L 5.21875 -64.15625 L 4.734375 -64.15625 L 4.734375 -65.59375 L 4.828125 -65.59375 L 4.828125 -67.53125 L 5.21875 -67.53125 L 5.21875 -68.984375 L 5.03125 -68.984375 L 5.03125 -69.84375 C 5.03125 -70.363281 5.09375 -70.71875 5.21875 -70.90625 L 6.1875 -70.90625 L 6.46875 -71.390625 L 5.703125 -71.390625 C 6.210938 -72.097656 6.921875 -72.453125 7.828125 -72.453125 L 24.15625 -72.453125 C 25.050781 -72.453125 25.757812 -72.097656 26.28125 -71.390625 L 27.046875 -71.390625 L 27.34375 -70.90625 L 26.28125 -70.90625 C 26.46875 -70.65625 26.5625 -70.300781 26.5625 -69.84375 L 26.5625 -68.984375 L 26.765625 -68.984375 L 26.765625 -67.53125 L 26.375 -67.53125 L 26.375 -65.59375 L 26.28125 -65.59375 L 26.28125 -64.15625 L 26.765625 -64.15625 L 26.765625 -62.21875 L 26.1875 -62.21875 L 26.1875 -61.734375 L 25.3125 -61.734375 L 25.3125 -60.28125 L 25.40625 -60.28125 L 25.40625 -58.359375 L 26.078125 -58.359375 L 26.078125 -58.15625 C 26.078125 -57.582031 25.851562 -57.003906 25.40625 -56.421875 L 24.25 -56.421875 C 23.800781 -55.835938 23.15625 -55.546875 22.3125 -55.546875 L 5.984375 -55.546875 C 5.148438 -55.546875 4.476562 -55.835938 3.96875 -56.421875 L 5.125 -56.421875 C 4.738281 -56.929688 4.546875 -57.507812 4.546875 -58.15625 L 4.546875 -58.359375 Z M 23.765625 -38.0625 L 32.84375 -38.0625 L 32.84375 -36.125 L 29.5625 -36.125 L 29.5625 -35.171875 L 25.890625 -35.171875 L 25.890625 -33.234375 L 28.6875 -33.234375 L 28.6875 -32.75 L 26.859375 -32.75 L 26.859375 -31.78125 L 27.140625 -31.78125 L 27.140625 -30.8125 L 27.625 -30.8125 L 27.625 -29.375 L 22.796875 -29.375 L 22.796875 -27.921875 L 25.984375 -27.921875 L 25.984375 -26.46875 L 25.40625 -26.46875 L 25.40625 -25.5 L 27.046875 -25.5 L 27.046875 -24.0625 L 27.4375 -24.0625 L 27.4375 -22.609375 L 26.859375 -22.609375 L 26.859375 -21.15625 L 27.34375 -21.15625 L 27.34375 -20.1875 L 26.859375 -20.1875 L 26.859375 -18.265625 L 26.671875 -18.265625 L 26.671875 -16.8125 L 26.28125 -16.8125 L 26.28125 -15.359375 L 26.671875 -15.359375 L 26.671875 -14.390625 L 26.859375 -14.390625 L 26.859375 -12.46875 L 26.46875 -12.46875 L 26.46875 -11.5 L 26.953125 -11.5 L 26.953125 -10.53125 L 26.859375 -10.53125 L 26.859375 -9.078125 L 27.25 -9.078125 L 27.25 -7.625 L 27.53125 -7.625 L 27.53125 -7.15625 L 26.859375 -7.15625 L 26.859375 -5.21875 L 25.5 -5.21875 L 25.5 -3.28125 L 26.46875 -3.28125 L 26.46875 -2.609375 C 26.46875 -2.285156 26.4375 -2.023438 26.375 -1.828125 L 25.703125 -1.828125 C 25.503906 -1.191406 25.148438 -0.710938 24.640625 -0.390625 L 26.5625 -0.390625 C 26.238281 -0.128906 25.757812 0 25.125 0 L 7.828125 0 C 7.242188 0 6.789062 -0.128906 6.46875 -0.390625 L 4.546875 -0.390625 C 3.960938 -0.710938 3.570312 -1.191406 3.375 -1.828125 L 4.0625 -1.828125 C 4 -2.023438 3.96875 -2.285156 3.96875 -2.609375 L 3.96875 -3.28125 L 3 -3.28125 L 3 -5.21875 L 4.34375 -5.21875 L 4.34375 -7.15625 L 5.03125 -7.15625 L 5.03125 -7.625 L 4.734375 -7.625 L 4.734375 -9.078125 L 4.34375 -9.078125 L 4.34375 -10.53125 L 4.4375 -10.53125 L 4.4375 -11.5 L 3.96875 -11.5 L 3.96875 -12.46875 L 4.34375 -12.46875 L 4.34375 -14.390625 L 4.15625 -14.390625 L 4.15625 -15.359375 L 3.765625 -15.359375 L 3.765625 -16.8125 L 4.15625 -16.8125 L 4.15625 -18.265625 L 4.34375 -18.265625 L 4.34375 -20.1875 L 4.828125 -20.1875 L 4.828125 -21.15625 L 4.34375 -21.15625 L 4.34375 -22.609375 L 4.921875 -22.609375 L 4.921875 -24.0625 L 4.546875 -24.0625 L 4.546875 -25.5 L 2.890625 -25.5 L 2.890625 -26.46875 L 3.484375 -26.46875 L 3.484375 -27.921875 L 0.296875 -27.921875 L 0.296875 -29.375 L 5.125 -29.375 L 5.125 -30.8125 L 4.640625 -30.8125 L 4.640625 -31.78125 L 4.34375 -31.78125 L 4.34375 -32.75 L 6.1875 -32.75 L 6.1875 -33.234375 L 3.375 -33.234375 L 3.375 -35.171875 L 7.046875 -35.171875 L 7.046875 -36.125 L 10.34375 -36.125 L 10.34375 -38.0625 L 1.25 -38.0625 L 1.25 -39.03125 L 9.28125 -39.03125 L 9.28125 -40.96875 L 6.375 -40.96875 L 6.375 -42.40625 L 8.109375 -42.40625 L 8.109375 -44.34375 L 5.03125 -44.34375 L 5.03125 -44.828125 L 4.34375 -44.828125 L 4.34375 -45.796875 L 3.765625 -45.796875 L 3.765625 -47.234375 L 4.4375 -47.234375 L 4.4375 -47.625 C 4.4375 -48.332031 4.597656 -48.847656 4.921875 -49.171875 L 5.03125 -49.171875 C 5.539062 -49.878906 6.25 -50.234375 7.15625 -50.234375 L 24.4375 -50.234375 C 25.34375 -50.234375 26.050781 -49.878906 26.5625 -49.171875 L 26.375 -49.171875 C 26.757812 -48.785156 26.953125 -48.269531 26.953125 -47.625 L 26.953125 -47.234375 L 26.28125 -47.234375 L 26.28125 -45.796875 L 26.859375 -45.796875 L 26.859375 -44.828125 L 27.53125 -44.828125 L 27.53125 -44.34375 L 30.625 -44.34375 L 30.625 -42.40625 L 28.890625 -42.40625 L 28.890625 -40.96875 L 31.78125 -40.96875 L 31.78125 -39.03125 L 23.765625 -39.03125 Z M 23.765625 -38.0625 "/></g></g><g style="fill:#5ce1e6;fill-opacity:1;"><g transform="translate(166.650165, 91.12248)"><path style="stroke:none" d="M 19.328125 -3.765625 L 31.78125 -3.765625 L 31.78125 -2.3125 L 18.265625 -2.3125 C 18.128906 -1.414062 17.707031 -0.773438 17 -0.390625 L 22.609375 -0.390625 C 22.285156 -0.128906 21.832031 0 21.25 0 L 4.4375 0 C 3.800781 0 3.320312 -0.128906 3 -0.390625 L -2.515625 -0.390625 C -3.222656 -0.773438 -3.640625 -1.414062 -3.765625 -2.3125 L 9.75 -2.3125 L 9.75 -3.765625 L -2.703125 -3.765625 L -2.703125 -5.703125 L -4.4375 -5.703125 L -4.4375 -7.15625 L 9.28125 -7.15625 L 9.28125 -8.59375 L -8.5 -8.59375 L -8.5 -9.078125 L -7.15625 -9.078125 L -7.15625 -10.53125 L 3.96875 -10.53125 L 3.96875 -11.015625 L -5.125 -11.015625 L -5.125 -11.5 L 2.796875 -11.5 L 2.796875 -12.46875 L 1.734375 -12.46875 L 1.734375 -13.90625 L 4.0625 -13.90625 L 4.0625 -14.390625 L 5.125 -14.390625 L 5.125 -16.328125 L 5.40625 -16.328125 L 5.40625 -16.8125 L 6.09375 -16.8125 L 6.09375 -18.75 L 8.5 -18.75 L 8.5 -19.21875 L 4.25 -19.21875 L 4.25 -19.421875 C 4.25 -19.992188 4.472656 -20.570312 4.921875 -21.15625 L 8.109375 -21.15625 C 8.628906 -21.738281 9.273438 -22.03125 10.046875 -22.03125 L 26.859375 -22.03125 C 27.691406 -22.03125 28.335938 -21.738281 28.796875 -21.15625 L 25.703125 -21.15625 C 26.085938 -20.707031 26.28125 -20.128906 26.28125 -19.421875 L 26.28125 -19.21875 L 30.53125 -19.21875 L 30.53125 -18.75 L 28.109375 -18.75 L 28.109375 -16.8125 L 27.4375 -16.8125 L 27.4375 -16.328125 L 27.140625 -16.328125 L 27.140625 -14.390625 L 26.078125 -14.390625 L 26.078125 -13.90625 L 23.765625 -13.90625 L 23.765625 -12.46875 L 24.828125 -12.46875 L 24.828125 -11.5 L 16.90625 -11.5 L 16.90625 -11.015625 L 25.984375 -11.015625 L 25.984375 -10.53125 L 14.875 -10.53125 L 14.875 -9.078125 L 13.53125 -9.078125 L 13.53125 -8.59375 L 31.296875 -8.59375 L 31.296875 -7.15625 L 17.578125 -7.15625 L 17.578125 -5.703125 L 19.328125 -5.703125 Z M 19.328125 -3.765625 "/></g></g><g style="fill:#5ce1e6;fill-opacity:1;"><g transform="translate(187.709404, 91.12248)"><path style="stroke:none" d="M 54.96875 -5.21875 L 54.96875 -4.25 L 63.375 -4.25 L 63.375 -2.609375 C 63.375 -2.484375 63.34375 -2.382812 63.28125 -2.3125 L 58.734375 -2.3125 C 58.609375 -1.414062 58.191406 -0.773438 57.484375 -0.390625 L 56.609375 -0.390625 C 56.285156 -0.128906 55.835938 0 55.265625 0 L 38.359375 0 C 37.773438 0 37.320312 -0.128906 37 -0.390625 L 37.78125 -0.390625 C 37.132812 -0.835938 36.742188 -1.476562 36.609375 -2.3125 L 41.25 -2.3125 L 41.25 -4.25 L 37.390625 -4.25 C 37.066406 -3.925781 36.726562 -3.601562 36.375 -3.28125 C 36.019531 -2.957031 35.648438 -2.632812 35.265625 -2.3125 L 34.203125 -2.3125 C 33.035156 -1.476562 31.875 -0.835938 30.71875 -0.390625 L 27.625 -0.390625 C 27.175781 -0.191406 26.675781 -0.015625 26.125 0.140625 C 25.582031 0.304688 25.019531 0.453125 24.4375 0.578125 L 23.671875 0.578125 C 23.023438 0.703125 22.363281 0.796875 21.6875 0.859375 C 21.007812 0.929688 20.316406 0.96875 19.609375 0.96875 C 18.835938 0.96875 18.082031 0.929688 17.34375 0.859375 C 16.601562 0.796875 15.878906 0.703125 15.171875 0.578125 L 15.9375 0.578125 C 15.289062 0.453125 14.660156 0.304688 14.046875 0.140625 C 13.441406 -0.015625 12.847656 -0.191406 12.265625 -0.390625 L 15.265625 -0.390625 C 13.847656 -0.898438 12.5625 -1.539062 11.40625 -2.3125 L 12.46875 -2.3125 C 12.007812 -2.632812 11.585938 -2.957031 11.203125 -3.28125 C 10.816406 -3.601562 10.429688 -3.925781 10.046875 -4.25 L 5.21875 -4.25 L 4.34375 -5.21875 C 4.28125 -5.34375 4.179688 -5.5 4.046875 -5.6875 C 3.921875 -5.882812 3.796875 -6.050781 3.671875 -6.1875 L 6.5625 -6.1875 C 6.4375 -6.4375 6.289062 -6.675781 6.125 -6.90625 C 5.96875 -7.132812 5.828125 -7.375 5.703125 -7.625 L 4.828125 -7.625 C 4.828125 -7.695312 4.765625 -7.859375 4.640625 -8.109375 L 3.765625 -8.109375 L 3.484375 -8.59375 L 3.578125 -8.59375 L 3 -10.046875 L 2.515625 -10.046875 C 2.453125 -10.304688 2.382812 -10.546875 2.3125 -10.765625 C 2.25 -10.992188 2.1875 -11.238281 2.125 -11.5 L -1.546875 -11.5 C -1.734375 -12.207031 -1.828125 -12.847656 -1.828125 -13.421875 L 1.359375 -13.421875 L 1.359375 -14.390625 C 1.359375 -14.710938 1.359375 -15.050781 1.359375 -15.40625 C 1.359375 -15.757812 1.390625 -16.066406 1.453125 -16.328125 L 4.34375 -16.328125 C 4.40625 -16.648438 4.46875 -16.988281 4.53125 -17.34375 C 4.601562 -17.695312 4.671875 -18.003906 4.734375 -18.265625 L 2.03125 -18.265625 L 2.21875 -18.75 L 2.3125 -18.75 L 2.515625 -19.21875 L 2.421875 -19.21875 C 2.546875 -19.476562 2.671875 -19.71875 2.796875 -19.9375 C 2.929688 -20.164062 3.03125 -20.410156 3.09375 -20.671875 L -2.609375 -20.671875 L -2.03125 -21.640625 L -4.15625 -21.640625 C -3.957031 -21.835938 -3.828125 -22 -3.765625 -22.125 L -0.296875 -22.125 C -0.160156 -22.25 -0.03125 -22.40625 0.09375 -22.59375 C 0.226562 -22.789062 0.359375 -22.957031 0.484375 -23.09375 L 0.671875 -23.09375 C 1.316406 -23.863281 1.992188 -24.503906 2.703125 -25.015625 L -5.21875 -25.015625 C -4.769531 -25.335938 -4.300781 -25.675781 -3.8125 -26.03125 C -3.332031 -26.382812 -2.832031 -26.691406 -2.3125 -26.953125 L 3 -26.953125 L 3.859375 -27.4375 L 6.5625 -27.4375 C 6.695312 -27.5625 6.859375 -27.65625 7.046875 -27.71875 C 7.242188 -27.789062 7.40625 -27.859375 7.53125 -27.921875 L 8.6875 -27.921875 C 9.851562 -28.503906 11.113281 -28.988281 12.46875 -29.375 L 18.359375 -29.375 C 19.253906 -29.695312 20.171875 -29.96875 21.109375 -30.1875 C 22.046875 -30.414062 23.03125 -30.625 24.0625 -30.8125 L 21.640625 -30.8125 L 23.1875 -31.109375 L 33.421875 -32.75 L 33.421875 -33.234375 L 38.359375 -33.234375 L 38.359375 -33.71875 L 29.078125 -33.71875 L 29.078125 -34.203125 L 34.59375 -34.203125 C 34.59375 -34.523438 34.59375 -34.796875 34.59375 -35.015625 C 34.59375 -35.242188 34.554688 -35.457031 34.484375 -35.65625 C 34.421875 -36.226562 34.195312 -36.707031 33.8125 -37.09375 L 32.171875 -37.09375 C 32.109375 -37.15625 31.945312 -37.253906 31.6875 -37.390625 L 31.015625 -37.09375 L 29.375 -37.09375 C 29.113281 -36.90625 28.851562 -36.695312 28.59375 -36.46875 C 28.332031 -36.238281 28.046875 -35.96875 27.734375 -35.65625 L 27.828125 -35.65625 C 27.117188 -34.945312 26.21875 -34.59375 25.125 -34.59375 L 8.6875 -34.59375 C 7.726562 -34.59375 7.085938 -34.945312 6.765625 -35.65625 L 6.671875 -35.65625 C 6.472656 -35.96875 6.40625 -36.320312 6.46875 -36.71875 L 6.46875 -37.09375 L 8.015625 -37.09375 C 8.078125 -37.226562 8.109375 -37.390625 8.109375 -37.578125 L 1.9375 -37.578125 C 1.9375 -37.835938 2 -38.160156 2.125 -38.546875 L 16.03125 -38.546875 C 16.03125 -38.609375 16.097656 -38.769531 16.234375 -39.03125 L 7.625 -39.03125 C 7.820312 -39.675781 8.113281 -40.320312 8.5 -40.96875 L 10.140625 -40.96875 C 10.335938 -41.289062 10.5625 -41.609375 10.8125 -41.921875 C 11.070312 -42.242188 11.332031 -42.566406 11.59375 -42.890625 L 4.34375 -42.890625 L 5.21875 -43.859375 L 19.21875 -43.859375 C 19.476562 -44.117188 19.753906 -44.359375 20.046875 -44.578125 C 20.335938 -44.804688 20.613281 -45.050781 20.875 -45.3125 L 11.984375 -45.3125 L 12.5625 -45.796875 L 9.859375 -45.796875 C 10.179688 -46.046875 10.535156 -46.285156 10.921875 -46.515625 C 11.304688 -46.742188 11.691406 -46.984375 12.078125 -47.234375 L 16.609375 -47.234375 C 17.960938 -48.015625 19.382812 -48.660156 20.875 -49.171875 L 21.546875 -49.171875 C 23.285156 -49.816406 25.234375 -50.316406 27.390625 -50.671875 C 29.546875 -51.023438 31.910156 -51.203125 34.484375 -51.203125 C 39.765625 -51.203125 44.242188 -50.523438 47.921875 -49.171875 L 47.140625 -49.171875 C 47.847656 -48.910156 48.539062 -48.617188 49.21875 -48.296875 C 49.894531 -47.984375 50.554688 -47.628906 51.203125 -47.234375 L 46.65625 -47.234375 L 48.6875 -45.796875 L 51.390625 -45.796875 L 51.96875 -45.3125 L 60.859375 -45.3125 L 62.3125 -43.859375 L 48.296875 -43.859375 C 48.429688 -43.734375 48.5625 -43.570312 48.6875 -43.375 C 48.820312 -43.1875 48.953125 -43.023438 49.078125 -42.890625 L 56.234375 -42.890625 C 56.484375 -42.640625 56.722656 -42.335938 56.953125 -41.984375 C 57.179688 -41.628906 57.359375 -41.289062 57.484375 -40.96875 L 55.9375 -40.96875 L 56.8125 -39.03125 L 65.40625 -39.03125 C 65.53125 -38.769531 65.59375 -38.609375 65.59375 -38.546875 L 51.6875 -38.546875 C 51.8125 -38.421875 51.890625 -38.257812 51.921875 -38.0625 C 51.953125 -37.875 52.003906 -37.710938 52.078125 -37.578125 L 55.265625 -37.578125 C 55.265625 -37.515625 55.28125 -37.453125 55.3125 -37.390625 C 55.34375 -37.328125 55.359375 -37.226562 55.359375 -37.09375 L 57 -37.09375 L 57.578125 -34.203125 L 51.96875 -34.203125 C 51.96875 -34.140625 51.984375 -34.070312 52.015625 -34 C 52.054688 -33.9375 52.078125 -33.84375 52.078125 -33.71875 L 61.34375 -33.71875 L 61.34375 -33.234375 L 56.515625 -33.234375 L 56.515625 -32.75 C 56.578125 -32.425781 56.609375 -32.101562 56.609375 -31.78125 C 56.609375 -31.457031 56.609375 -31.132812 56.609375 -30.8125 L 59.125 -30.8125 L 59.125 -29.375 L 53.140625 -29.375 L 53.140625 -27.921875 L 52.078125 -27.921875 L 52.078125 -27.4375 L 49.46875 -27.4375 L 49.46875 -26.953125 L 44.15625 -26.953125 L 44.15625 -25.015625 L 52.078125 -25.015625 L 52.078125 -23.09375 L 51.875 -23.09375 L 51.875 -22.125 L 48.40625 -22.125 L 48.40625 -21.640625 L 50.53125 -21.640625 L 50.53125 -20.671875 L 56.90625 -20.671875 L 56.90625 -19.21875 L 55.75 -19.21875 L 55.75 -18.265625 L 56.515625 -18.265625 L 56.515625 -16.328125 L 55.9375 -16.328125 L 55.9375 -13.421875 L 52.75 -13.421875 L 52.75 -11.5 L 56.421875 -11.5 L 56.421875 -10.046875 L 56.90625 -10.046875 L 56.90625 -8.109375 L 57.765625 -8.109375 L 57.765625 -7.625 L 58.546875 -7.625 L 58.546875 -6.1875 L 55.546875 -6.1875 L 55.546875 -5.21875 Z M 26.953125 -37.671875 C 26.503906 -37.671875 26.179688 -37.640625 25.984375 -37.578125 L 28.015625 -37.578125 C 27.828125 -37.640625 27.472656 -37.671875 26.953125 -37.671875 Z M 27.625 -20.875 L 26.765625 -20.671875 L 27.625 -20.671875 Z M 24.34375 -18.265625 L 27.046875 -18.265625 C 26.335938 -17.742188 25.984375 -17.097656 25.984375 -16.328125 L 23.09375 -16.328125 L 23.09375 -16.03125 C 23.09375 -15.394531 23.316406 -14.847656 23.765625 -14.390625 C 24.085938 -13.941406 24.734375 -13.617188 25.703125 -13.421875 L 28.015625 -13.421875 C 28.984375 -13.617188 29.820312 -13.941406 30.53125 -14.390625 C 31.101562 -14.910156 31.648438 -15.554688 32.171875 -16.328125 L 32.65625 -16.328125 C 32.78125 -16.648438 32.90625 -16.953125 33.03125 -17.234375 C 33.164062 -17.523438 33.265625 -17.867188 33.328125 -18.265625 L 32.5625 -18.265625 C 32.5625 -18.390625 32.578125 -18.484375 32.609375 -18.546875 C 32.640625 -18.609375 32.65625 -18.675781 32.65625 -18.75 L 32.75 -18.75 L 32.75 -19.21875 L 33.90625 -19.21875 C 33.96875 -19.476562 34 -19.71875 34 -19.9375 C 34 -20.164062 34 -20.410156 34 -20.671875 L 32.359375 -20.671875 L 27.625 -19.609375 C 27.375 -19.546875 27.132812 -19.484375 26.90625 -19.421875 C 26.675781 -19.359375 26.46875 -19.289062 26.28125 -19.21875 C 26.082031 -19.15625 25.882812 -19.09375 25.6875 -19.03125 C 25.5 -18.96875 25.34375 -18.875 25.21875 -18.75 L 25.125 -18.75 C 24.988281 -18.675781 24.851562 -18.609375 24.71875 -18.546875 C 24.59375 -18.484375 24.46875 -18.390625 24.34375 -18.265625 Z M 24.828125 -13.421875 L 22.40625 -13.421875 C 22.664062 -13.359375 23.054688 -13.328125 23.578125 -13.328125 C 23.765625 -13.328125 23.96875 -13.328125 24.1875 -13.328125 C 24.414062 -13.328125 24.628906 -13.359375 24.828125 -13.421875 Z M 24.828125 -13.421875 "/></g></g><g style="fill:#5ce1e6;fill-opacity:1;"><g transform="translate(238.71608, 91.12248)"><path style="stroke:none" d="M 3.859375 -58.359375 L 3.859375 -60.28125 L 3.765625 -60.28125 L 3.765625 -61.734375 L 4.640625 -61.734375 L 4.640625 -62.21875 L 5.21875 -62.21875 L 5.21875 -64.15625 L 4.734375 -64.15625 L 4.734375 -65.59375 L 4.828125 -65.59375 L 4.828125 -67.53125 L 5.21875 -67.53125 L 5.21875 -68.984375 L 5.03125 -68.984375 L 5.03125 -69.84375 C 5.03125 -70.363281 5.09375 -70.71875 5.21875 -70.90625 L 6.1875 -70.90625 L 6.46875 -71.390625 L 5.703125 -71.390625 C 6.210938 -72.097656 6.921875 -72.453125 7.828125 -72.453125 L 24.15625 -72.453125 C 25.050781 -72.453125 25.757812 -72.097656 26.28125 -71.390625 L 27.046875 -71.390625 L 27.34375 -70.90625 L 26.28125 -70.90625 C 26.46875 -70.65625 26.5625 -70.300781 26.5625 -69.84375 L 26.5625 -68.984375 L 26.765625 -68.984375 L 26.765625 -67.53125 L 26.375 -67.53125 L 26.375 -65.59375 L 26.28125 -65.59375 L 26.28125 -64.15625 L 26.765625 -64.15625 L 26.765625 -62.21875 L 26.1875 -62.21875 L 26.1875 -61.734375 L 25.3125 -61.734375 L 25.3125 -60.28125 L 25.40625 -60.28125 L 25.40625 -58.359375 L 26.078125 -58.359375 L 26.078125 -58.15625 C 26.078125 -57.582031 25.851562 -57.003906 25.40625 -56.421875 L 24.25 -56.421875 C 23.800781 -55.835938 23.15625 -55.546875 22.3125 -55.546875 L 5.984375 -55.546875 C 5.148438 -55.546875 4.476562 -55.835938 3.96875 -56.421875 L 5.125 -56.421875 C 4.738281 -56.929688 4.546875 -57.507812 4.546875 -58.15625 L 4.546875 -58.359375 Z M 23.765625 -38.0625 L 32.84375 -38.0625 L 32.84375 -36.125 L 29.5625 -36.125 L 29.5625 -35.171875 L 25.890625 -35.171875 L 25.890625 -33.234375 L 28.6875 -33.234375 L 28.6875 -32.75 L 26.859375 -32.75 L 26.859375 -31.78125 L 27.140625 -31.78125 L 27.140625 -30.8125 L 27.625 -30.8125 L 27.625 -29.375 L 22.796875 -29.375 L 22.796875 -27.921875 L 25.984375 -27.921875 L 25.984375 -26.46875 L 25.40625 -26.46875 L 25.40625 -25.5 L 27.046875 -25.5 L 27.046875 -24.0625 L 27.4375 -24.0625 L 27.4375 -22.609375 L 26.859375 -22.609375 L 26.859375 -21.15625 L 27.34375 -21.15625 L 27.34375 -20.1875 L 26.859375 -20.1875 L 26.859375 -18.265625 L 26.671875 -18.265625 L 26.671875 -16.8125 L 26.28125 -16.8125 L 26.28125 -15.359375 L 26.671875 -15.359375 L 26.671875 -14.390625 L 26.859375 -14.390625 L 26.859375 -12.46875 L 26.46875 -12.46875 L 26.46875 -11.5 L 26.953125 -11.5 L 26.953125 -10.53125 L 26.859375 -10.53125 L 26.859375 -9.078125 L 27.25 -9.078125 L 27.25 -7.625 L 27.53125 -7.625 L 27.53125 -7.15625 L 26.859375 -7.15625 L 26.859375 -5.21875 L 25.5 -5.21875 L 25.5 -3.28125 L 26.46875 -3.28125 L 26.46875 -2.609375 C 26.46875 -2.285156 26.4375 -2.023438 26.375 -1.828125 L 25.703125 -1.828125 C 25.503906 -1.191406 25.148438 -0.710938 24.640625 -0.390625 L 26.5625 -0.390625 C 26.238281 -0.128906 25.757812 0 25.125 0 L 7.828125 0 C 7.242188 0 6.789062 -0.128906 6.46875 -0.390625 L 4.546875 -0.390625 C 3.960938 -0.710938 3.570312 -1.191406 3.375 -1.828125 L 4.0625 -1.828125 C 4 -2.023438 3.96875 -2.285156 3.96875 -2.609375 L 3.96875 -3.28125 L 3 -3.28125 L 3 -5.21875 L 4.34375 -5.21875 L 4.34375 -7.15625 L 5.03125 -7.15625 L 5.03125 -7.625 L 4.734375 -7.625 L 4.734375 -9.078125 L 4.34375 -9.078125 L 4.34375 -10.53125 L 4.4375 -10.53125 L 4.4375 -11.5 L 3.96875 -11.5 L 3.96875 -12.46875 L 4.34375 -12.46875 L 4.34375 -14.390625 L 4.15625 -14.390625 L 4.15625 -15.359375 L 3.765625 -15.359375 L 3.765625 -16.8125 L 4.15625 -16.8125 L 4.15625 -18.265625 L 4.34375 -18.265625 L 4.34375 -20.1875 L 4.828125 -20.1875 L 4.828125 -21.15625 L 4.34375 -21.15625 L 4.34375 -22.609375 L 4.921875 -22.609375 L 4.921875 -24.0625 L 4.546875 -24.0625 L 4.546875 -25.5 L 2.890625 -25.5 L 2.890625 -26.46875 L 3.484375 -26.46875 L 3.484375 -27.921875 L 0.296875 -27.921875 L 0.296875 -29.375 L 5.125 -29.375 L 5.125 -30.8125 L 4.640625 -30.8125 L 4.640625 -31.78125 L 4.34375 -31.78125 L 4.34375 -32.75 L 6.1875 -32.75 L 6.1875 -33.234375 L 3.375 -33.234375 L 3.375 -35.171875 L 7.046875 -35.171875 L 7.046875 -36.125 L 10.34375 -36.125 L 10.34375 -38.0625 L 1.25 -38.0625 L 1.25 -39.03125 L 9.28125 -39.03125 L 9.28125 -40.96875 L 6.375 -40.96875 L 6.375 -42.40625 L 8.109375 -42.40625 L 8.109375 -44.34375 L 5.03125 -44.34375 L 5.03125 -44.828125 L 4.34375 -44.828125 L 4.34375 -45.796875 L 3.765625 -45.796875 L 3.765625 -47.234375 L 4.4375 -47.234375 L 4.4375 -47.625 C 4.4375 -48.332031 4.597656 -48.847656 4.921875 -49.171875 L 5.03125 -49.171875 C 5.539062 -49.878906 6.25 -50.234375 7.15625 -50.234375 L 24.4375 -50.234375 C 25.34375 -50.234375 26.050781 -49.878906 26.5625 -49.171875 L 26.375 -49.171875 C 26.757812 -48.785156 26.953125 -48.269531 26.953125 -47.625 L 26.953125 -47.234375 L 26.28125 -47.234375 L 26.28125 -45.796875 L 26.859375 -45.796875 L 26.859375 -44.828125 L 27.53125 -44.828125 L 27.53125 -44.34375 L 30.625 -44.34375 L 30.625 -42.40625 L 28.890625 -42.40625 L 28.890625 -40.96875 L 31.78125 -40.96875 L 31.78125 -39.03125 L 23.765625 -39.03125 Z M 23.765625 -38.0625 "/></g></g></g></g></g></svg>